<svg id="Layer_1" data-name="Layer 1" xmlns="http://www.w3.org/2000/svg" viewBox="0 0 400 128"><defs><style>.cls-1{fill:#29bac1;}.cls-2,.cls-3{fill:#fff;}.cls-2{opacity:0.7;}</style></defs><rect class="cls-1" x="4" y="2.95" width="122.09" height="122.09" rx="40.16"/><polygon class="cls-2" points="92.72 36.33 65.3 63.74 56.34 36.33 92.72 36.33"/><polygon class="cls-2" points="37.38 91.67 64.79 64.26 73.76 91.67 37.38 91.67"/><polygon class="cls-3" points="37.38 91.67 55.82 73.22 92.2 73.22 73.76 91.67 37.38 91.67"/><polygon class="cls-3" points="37.89 54.78 56.34 36.33 92.72 36.33 74.27 54.78 37.89 54.78"/><path class="cls-3" d="M173.18,40.37H142.86V24.62h57.77l-31.84,63h30.32v15.75H141.34Z"/><path class="cls-3" d="M222.74,87.63H261v15.75H204.74V24.62H261V40.37H222.74V56.12h32.63V71.88H222.74Z"/><path class="cls-3" d="M284.62,58.43v44.95h-18V24.62h17.94l25.93,44.95V24.62h18v78.76H310.55Z"/><path class="cls-3" d="M374.06,40.37v63h-18v-63H334.12V24.62H396V40.37Z"/></svg>