<svg width="44" height="40" viewBox="0 0 44 40" fill="none" xmlns="http://www.w3.org/2000/svg">
<path d="M2 38V36.8C2 32.32 2 30.08 2.872 28.368C3.63898 26.8628 4.86277 25.639 6.368 24.872M22 16C22.9193 16 23.8295 15.8189 24.6788 15.4672C25.5281 15.1154 26.2997 14.5998 26.9497 13.9497C27.5998 13.2997 28.1154 12.5281 28.4672 11.6788C28.8189 10.8295 29 9.91925 29 9C29 8.08075 28.8189 7.17049 28.4672 6.32122C28.1154 5.47194 27.5998 4.70026 26.9497 4.05025C26.2997 3.40024 25.5281 2.88463 24.6788 2.53284C23.8295 2.18106 22.9193 2 22 2C20.1435 2 18.363 2.7375 17.0503 4.05025C15.7375 5.36301 15 7.14348 15 9C15 10.8565 15.7375 12.637 17.0503 13.9497C18.363 15.2625 20.1435 16 22 16V16ZM10 3.255C9.07341 3.89937 8.31657 4.75848 7.79415 5.75891C7.27173 6.75935 6.99925 7.87138 7 9C6.99936 10.2078 7.31143 11.3953 7.90584 12.4467C8.50026 13.4981 9.35677 14.3778 10.392 15L10 3.255ZM34 3.255C34.9266 3.89937 35.6834 4.75848 36.2058 5.75891C36.7283 6.75935 37.0007 7.87138 37 9C37.0007 10.1286 36.7283 11.2407 36.2058 12.2411C35.6834 13.2415 34.9266 14.1006 34 14.745V3.255ZM10 36V38H34V36C34 32.273 34 30.409 33.391 28.938C32.5788 26.9779 31.0213 25.4207 29.061 24.609C27.591 24 25.727 24 22 24C18.273 24 16.409 24 14.939 24.609C13.9683 25.011 13.0863 25.6004 12.3433 26.3433C11.6004 27.0863 11.011 27.9683 10.609 28.939C10 30.408 10 32.273 10 36ZM42 38V36.8C42 32.32 42 30.08 41.128 28.368C40.361 26.8628 39.1372 25.639 37.632 24.872L42 38Z" stroke="white" stroke-width="4" stroke-linecap="round" stroke-linejoin="round"/>
</svg>
