<svg width="55" height="55" viewBox="0 0 55 55" fill="none" xmlns="http://www.w3.org/2000/svg">
<path d="M48.1141 15.8125C48.076 15.4273 47.9408 15.0582 47.7212 14.7395C47.5016 14.4209 47.2047 14.1632 46.8583 13.9906L28.525 4.82393C28.2066 4.66461 27.8555 4.58167 27.4994 4.58167C27.1434 4.58167 26.7923 4.66461 26.4739 4.82393L8.14058 13.9906C7.79517 14.1642 7.49917 14.4222 7.28004 14.7407C7.06091 15.0592 6.92573 15.4278 6.88704 15.8125C6.86183 16.0577 4.68475 40.4868 26.5702 50.2196C26.8626 50.3515 27.1798 50.4198 27.5006 50.4198C27.8214 50.4198 28.1386 50.3515 28.431 50.2196C50.3164 40.4868 48.1393 16.06 48.1141 15.8125ZM27.5006 45.5973C11.9883 38.0989 11.255 22.0962 11.381 17.4968L27.5006 9.43706L43.6087 17.4923C43.6935 22.0504 42.857 38.1585 27.5006 45.5973Z" fill="white"/>
<path d="M25.2081 28.8429L19.9533 23.5882L16.7129 26.8286L25.2081 35.3238L38.2866 22.2452L35.0462 19.0048L25.2081 28.8429Z" fill="white"/>
</svg>
