<svg width="38" height="38" viewBox="0 0 38 38" fill="none" xmlns="http://www.w3.org/2000/svg">
<g filter="url(#filter0_d_247_1283)">
<rect x="4" width="30" height="30" rx="15" fill="#2B9A9F"/>
<g clip-path="url(#clip0_247_1283)">
<path fill-rule="evenodd" clip-rule="evenodd" d="M11 7H12V21.0625H27V22H11V7ZM21 10.2812C21 10.1569 21.0527 10.0377 21.1464 9.94979C21.2402 9.86189 21.3674 9.8125 21.5 9.8125H25.5C25.6326 9.8125 25.7598 9.86189 25.8536 9.94979C25.9473 10.0377 26 10.1569 26 10.2812V14.0312C26 14.1556 25.9473 14.2748 25.8536 14.3627C25.7598 14.4506 25.6326 14.5 25.5 14.5C25.3674 14.5 25.2402 14.4506 25.1464 14.3627C25.0527 14.2748 25 14.1556 25 14.0312V11.5938L21.387 15.7347C21.3428 15.7853 21.2877 15.8267 21.2254 15.8561C21.1631 15.8856 21.0949 15.9025 21.0252 15.9058C20.9555 15.909 20.8858 15.8986 20.8207 15.8751C20.7556 15.8516 20.6964 15.8156 20.647 15.7694L18.06 13.3441L14.404 18.0569C14.324 18.1522 14.2077 18.2148 14.0796 18.2314C13.9514 18.2481 13.8214 18.2175 13.7168 18.1461C13.6122 18.0748 13.5411 17.9681 13.5186 17.8487C13.4961 17.7293 13.5238 17.6063 13.596 17.5056L17.596 12.3494C17.6385 12.2945 17.6931 12.249 17.7561 12.2159C17.8192 12.1827 17.8891 12.1628 17.9612 12.1575C18.0332 12.1521 18.1056 12.1615 18.1735 12.1849C18.2413 12.2083 18.3029 12.2452 18.354 12.2931L20.963 14.74L24.445 10.75H21.5C21.3674 10.75 21.2402 10.7006 21.1464 10.6127C21.0527 10.5248 21 10.4056 21 10.2812Z" fill="white"/>
</g>
</g>
<defs>
<filter id="filter0_d_247_1283" x="0" y="0" width="38" height="38" filterUnits="userSpaceOnUse" color-interpolation-filters="sRGB">
<feFlood flood-opacity="0" result="BackgroundImageFix"/>
<feColorMatrix in="SourceAlpha" type="matrix" values="0 0 0 0 0 0 0 0 0 0 0 0 0 0 0 0 0 0 127 0" result="hardAlpha"/>
<feOffset dy="4"/>
<feGaussianBlur stdDeviation="2"/>
<feComposite in2="hardAlpha" operator="out"/>
<feColorMatrix type="matrix" values="0 0 0 0 0 0 0 0 0 0 0 0 0 0 0 0 0 0 0.25 0"/>
<feBlend mode="normal" in2="BackgroundImageFix" result="effect1_dropShadow_247_1283"/>
<feBlend mode="normal" in="SourceGraphic" in2="effect1_dropShadow_247_1283" result="shape"/>
</filter>
<clipPath id="clip0_247_1283">
<rect width="16" height="15" fill="white" transform="translate(11 7)"/>
</clipPath>
</defs>
</svg>
