<svg width="38" height="38" viewBox="0 0 38 38" fill="none" xmlns="http://www.w3.org/2000/svg">
<g filter="url(#filter0_d_247_1291)">
<rect x="4" width="30" height="30" rx="15" fill="#2B9A9F"/>
<path d="M26.0625 20C26.0625 20 27 20 27 19.0833C27 18.1667 26.0625 15.4167 22.3125 15.4167C18.5625 15.4167 17.625 18.1667 17.625 19.0833C17.625 20 18.5625 20 18.5625 20H26.0625ZM18.5831 19.0833C18.5762 19.0824 18.5693 19.0812 18.5625 19.0797C18.5634 18.8377 18.7191 18.1355 19.275 17.503C19.7925 16.9099 20.7019 16.3333 22.3125 16.3333C23.9222 16.3333 24.8316 16.9108 25.35 17.503C25.9059 18.1355 26.0606 18.8386 26.0625 19.0797L26.055 19.0815C26.0506 19.0822 26.0463 19.0828 26.0419 19.0833H18.5831ZM22.3125 13.5833C22.8098 13.5833 23.2867 13.3902 23.6383 13.0464C23.99 12.7025 24.1875 12.2362 24.1875 11.75C24.1875 11.2638 23.99 10.7975 23.6383 10.4536C23.2867 10.1098 22.8098 9.91667 22.3125 9.91667C21.8152 9.91667 21.3383 10.1098 20.9867 10.4536C20.635 10.7975 20.4375 11.2638 20.4375 11.75C20.4375 12.2362 20.635 12.7025 20.9867 13.0464C21.3383 13.3902 21.8152 13.5833 22.3125 13.5833ZM25.125 11.75C25.125 12.1111 25.0523 12.4687 24.9109 12.8024C24.7696 13.136 24.5624 13.4392 24.3012 13.6945C24.0401 13.9499 23.73 14.1525 23.3888 14.2907C23.0476 14.4289 22.6818 14.5 22.3125 14.5C21.9432 14.5 21.5774 14.4289 21.2362 14.2907C20.895 14.1525 20.5849 13.9499 20.3238 13.6945C20.0626 13.4392 19.8554 13.136 19.7141 12.8024C19.5727 12.4687 19.5 12.1111 19.5 11.75C19.5 11.0207 19.7963 10.3212 20.3238 9.80546C20.8512 9.28973 21.5666 9 22.3125 9C23.0584 9 23.7738 9.28973 24.3012 9.80546C24.8287 10.3212 25.125 11.0207 25.125 11.75ZM18.5025 15.6733C18.1275 15.5579 17.7409 15.482 17.3494 15.4469C17.1294 15.4265 16.9085 15.4164 16.6875 15.4167C12.9375 15.4167 12 18.1667 12 19.0833C12 19.6947 12.3122 20 12.9375 20H16.89C16.751 19.7138 16.6817 19.4001 16.6875 19.0833C16.6875 18.1575 17.0409 17.2115 17.7094 16.4213C17.9372 16.1518 18.2025 15.8997 18.5025 15.6733ZM16.6125 16.3333C16.0576 17.1485 15.7579 18.1042 15.75 19.0833H12.9375C12.9375 18.845 13.0912 18.1392 13.65 17.503C14.1609 16.92 15.0488 16.3517 16.6125 16.3343V16.3333ZM13.4062 12.2083C13.4062 11.479 13.7026 10.7795 14.23 10.2638C14.7575 9.74806 15.4728 9.45833 16.2188 9.45833C16.9647 9.45833 17.68 9.74806 18.2075 10.2638C18.7349 10.7795 19.0312 11.479 19.0312 12.2083C19.0312 12.9377 18.7349 13.6372 18.2075 14.1529C17.68 14.6686 16.9647 14.9583 16.2188 14.9583C15.4728 14.9583 14.7575 14.6686 14.23 14.1529C13.7026 13.6372 13.4062 12.9377 13.4062 12.2083ZM16.2188 10.375C15.7215 10.375 15.2446 10.5682 14.8929 10.912C14.5413 11.2558 14.3438 11.7221 14.3438 12.2083C14.3438 12.6946 14.5413 13.1609 14.8929 13.5047C15.2446 13.8485 15.7215 14.0417 16.2188 14.0417C16.716 14.0417 17.1929 13.8485 17.5446 13.5047C17.8962 13.1609 18.0938 12.6946 18.0938 12.2083C18.0938 11.7221 17.8962 11.2558 17.5446 10.912C17.1929 10.5682 16.716 10.375 16.2188 10.375Z" fill="white"/>
</g>
<defs>
<filter id="filter0_d_247_1291" x="0" y="0" width="38" height="38" filterUnits="userSpaceOnUse" color-interpolation-filters="sRGB">
<feFlood flood-opacity="0" result="BackgroundImageFix"/>
<feColorMatrix in="SourceAlpha" type="matrix" values="0 0 0 0 0 0 0 0 0 0 0 0 0 0 0 0 0 0 127 0" result="hardAlpha"/>
<feOffset dy="4"/>
<feGaussianBlur stdDeviation="2"/>
<feComposite in2="hardAlpha" operator="out"/>
<feColorMatrix type="matrix" values="0 0 0 0 0 0 0 0 0 0 0 0 0 0 0 0 0 0 0.25 0"/>
<feBlend mode="normal" in2="BackgroundImageFix" result="effect1_dropShadow_247_1291"/>
<feBlend mode="normal" in="SourceGraphic" in2="effect1_dropShadow_247_1291" result="shape"/>
</filter>
</defs>
</svg>
