<svg width="38" height="38" viewBox="0 0 38 38" fill="none" xmlns="http://www.w3.org/2000/svg">
<g filter="url(#filter0_d_247_1276)">
<rect x="4" width="30" height="30" rx="15" fill="#2B9A9F"/>
<path d="M10.25 11.5699C11.3563 11.2692 12.9425 10.945 14.485 10.8443C16.1475 10.7354 17.5575 10.8955 18.375 11.4553V19.3739C17.2063 18.9433 15.725 18.884 14.3588 18.9734C12.8838 19.0709 11.3963 19.3479 10.25 19.6323V11.5699ZM19.625 11.4553C20.4425 10.8955 21.8525 10.7354 23.515 10.8443C25.0575 10.945 26.6437 11.2692 27.75 11.5699V19.6323C26.6025 19.3479 25.1163 19.07 23.6413 18.9742C22.2738 18.884 20.7937 18.9425 19.625 19.3739V11.4553ZM19 10.7208C17.7688 10.0326 15.9838 9.93023 14.3588 10.0359C12.4663 10.1602 10.5563 10.5819 9.36625 10.9337C9.25706 10.9659 9.16447 11.018 9.09953 11.0835C9.03458 11.1491 9.00003 11.2254 9 11.3034V20.2409C9.00003 20.3088 9.0263 20.3757 9.0764 20.4354C9.1265 20.495 9.19883 20.5456 9.28676 20.5824C9.3747 20.6191 9.47543 20.641 9.57973 20.6459C9.68403 20.6508 9.78856 20.6387 9.88375 20.6105C10.9863 20.2855 12.7625 19.8947 14.4838 19.7818C16.245 19.6664 17.7213 19.8525 18.5125 20.4944C18.5711 20.5418 18.6453 20.5801 18.7296 20.6064C18.814 20.6327 18.9064 20.6464 19 20.6464C19.0936 20.6464 19.186 20.6327 19.2704 20.6064C19.3547 20.5801 19.4289 20.5418 19.4875 20.4944C20.2788 19.8525 21.755 19.6664 23.515 19.7818C25.2375 19.8947 27.015 20.2855 28.1163 20.6105C28.2114 20.6387 28.316 20.6508 28.4203 20.6459C28.5246 20.641 28.6253 20.6191 28.7132 20.5824C28.8012 20.5456 28.8735 20.495 28.9236 20.4354C28.9737 20.3757 29 20.3088 29 20.2409V11.3034C29 11.2254 28.9654 11.1491 28.9005 11.0835C28.8355 11.018 28.7429 10.9659 28.6337 10.9337C27.4438 10.5819 25.5338 10.1602 23.6413 10.0359C22.0163 9.92942 20.2312 10.0326 19 10.7208Z" fill="white"/>
</g>
<defs>
<filter id="filter0_d_247_1276" x="0" y="0" width="38" height="38" filterUnits="userSpaceOnUse" color-interpolation-filters="sRGB">
<feFlood flood-opacity="0" result="BackgroundImageFix"/>
<feColorMatrix in="SourceAlpha" type="matrix" values="0 0 0 0 0 0 0 0 0 0 0 0 0 0 0 0 0 0 127 0" result="hardAlpha"/>
<feOffset dy="4"/>
<feGaussianBlur stdDeviation="2"/>
<feComposite in2="hardAlpha" operator="out"/>
<feColorMatrix type="matrix" values="0 0 0 0 0 0 0 0 0 0 0 0 0 0 0 0 0 0 0.25 0"/>
<feBlend mode="normal" in2="BackgroundImageFix" result="effect1_dropShadow_247_1276"/>
<feBlend mode="normal" in="SourceGraphic" in2="effect1_dropShadow_247_1276" result="shape"/>
</filter>
</defs>
</svg>
