<svg width="45" height="45" viewBox="0 0 45 45" fill="none" xmlns="http://www.w3.org/2000/svg">
<rect width="45" height="45" rx="22.5" fill="white"/>
<g clip-path="url(#clip0_247_1518)">
<path d="M30.6925 12.5716C30.9949 12.5855 31.2497 12.5994 31.448 12.6111L31.3416 15.1126C31.1455 15.1117 30.8963 15.1106 30.6073 15.1095C29.869 15.1068 28.87 15.104 27.8272 15.104C26.6868 15.104 25.8841 15.2531 25.3708 15.6425C24.8067 16.0706 24.7105 16.6877 24.7105 17.2462V19.9602V20.4602H25.2105H31.4587L31.2427 23.177H25.2105H24.7105V23.677V33.5H19.095V23.677V23.177H18.595H14.5V20.4602H18.595H19.095V19.9602V16.7855C19.095 15.7453 19.6524 14.697 20.9929 13.8849C22.3472 13.0647 24.4883 12.5 27.5635 12.5C28.8204 12.5 29.9138 12.5358 30.6925 12.5716Z" stroke="#2B9A9F"/>
</g>
<defs>
<clipPath id="clip0_247_1518">
<rect width="18" height="22" fill="white" transform="translate(14 12)"/>
</clipPath>
</defs>
</svg>
