<svg width="45" height="45" viewBox="0 0 45 45" fill="none" xmlns="http://www.w3.org/2000/svg">
<rect width="45" height="45" rx="22.5" fill="white"/>
<path d="M29.4068 18.0341C30.2021 18.0341 30.8468 17.3893 30.8468 16.5941C30.8468 15.7988 30.2021 15.1541 29.4068 15.1541C28.6115 15.1541 27.9668 15.7988 27.9668 16.5941C27.9668 17.3893 28.6115 18.0341 29.4068 18.0341Z" fill="#2B9A9F"/>
<path d="M22.9999 16.8379C21.7812 16.8379 20.5898 17.1993 19.5765 17.8764C18.5631 18.5535 17.7733 19.5158 17.3069 20.6418C16.8406 21.7678 16.7185 23.0067 16.9563 24.202C17.1941 25.3973 17.7809 26.4953 18.6427 27.3571C19.5045 28.2189 20.6024 28.8057 21.7977 29.0435C22.9931 29.2813 24.232 29.1592 25.358 28.6928C26.4839 28.2264 27.4463 27.4366 28.1234 26.4233C28.8005 25.41 29.1619 24.2186 29.1619 22.9999C29.1619 21.3656 28.5127 19.7983 27.3571 18.6427C26.2015 17.4871 24.6342 16.8379 22.9999 16.8379ZM22.9999 26.9999C22.2088 26.9999 21.4354 26.7653 20.7776 26.3258C20.1198 25.8862 19.6071 25.2615 19.3044 24.5306C19.0016 23.7997 18.9224 22.9955 19.0768 22.2195C19.2311 21.4436 19.6121 20.7309 20.1715 20.1715C20.7309 19.6121 21.4436 19.2311 22.2195 19.0767C22.9955 18.9224 23.7997 19.0016 24.5306 19.3044C25.2615 19.6071 25.8862 20.1198 26.3258 20.7776C26.7653 21.4354 26.9999 22.2088 26.9999 22.9999C26.9999 24.0608 26.5785 25.0782 25.8283 25.8283C25.0782 26.5785 24.0608 26.9999 22.9999 26.9999Z" fill="#2B9A9F"/>
<path d="M23 13.162C26.204 13.162 26.584 13.174 27.849 13.232C28.6098 13.241 29.3635 13.3807 30.077 13.645C30.5947 13.8447 31.0648 14.1505 31.4571 14.5429C31.8495 14.9352 32.1553 15.4053 32.355 15.923C32.6193 16.6365 32.759 17.3902 32.768 18.151C32.826 19.416 32.838 19.796 32.838 23.001C32.838 26.206 32.826 26.584 32.768 27.849C32.759 28.6098 32.6193 29.3635 32.355 30.077C32.1553 30.5947 31.8495 31.0648 31.4571 31.4571C31.0648 31.8495 30.5947 32.1553 30.077 32.355C29.3635 32.6193 28.6098 32.759 27.849 32.768C26.584 32.826 26.204 32.838 23 32.838C19.796 32.838 19.416 32.826 18.151 32.768C17.3902 32.759 16.6365 32.6193 15.923 32.355C15.4053 32.1553 14.9352 31.8495 14.5429 31.4571C14.1505 31.0648 13.8447 30.5947 13.645 30.077C13.3807 29.3635 13.241 28.6098 13.232 27.849C13.174 26.584 13.162 26.204 13.162 23C13.162 19.796 13.174 19.416 13.232 18.151C13.241 17.3902 13.3807 16.6365 13.645 15.923C13.8447 15.4053 14.1505 14.9352 14.5429 14.5429C14.9352 14.1505 15.4053 13.8447 15.923 13.645C16.6365 13.3807 17.3902 13.241 18.151 13.232C19.416 13.174 19.796 13.162 23 13.162ZM23 11C19.741 11 19.332 11.014 18.052 11.072C17.0568 11.0921 16.0722 11.2808 15.14 11.63C14.3427 11.9383 13.6187 12.4098 13.0142 13.0142C12.4098 13.6187 11.9383 14.3427 11.63 15.14C11.2807 16.0725 11.092 17.0574 11.072 18.053C11.014 19.333 11 19.74 11 23C11 26.26 11.014 26.668 11.072 27.948C11.0921 28.9432 11.2808 29.9278 11.63 30.86C11.9383 31.6573 12.4098 32.3813 13.0142 32.9858C13.6187 33.5902 14.3427 34.0617 15.14 34.37C16.0725 34.7193 17.0574 34.908 18.053 34.928C19.333 34.986 19.741 35 23 35C26.259 35 26.668 34.986 27.948 34.928C28.9436 34.908 29.9285 34.7193 30.861 34.37C31.6583 34.0617 32.3823 33.5902 32.9868 32.9858C33.5912 32.3813 34.0627 31.6573 34.371 30.86C34.72 29.9275 34.9083 28.9425 34.928 27.947C34.986 26.667 35 26.26 35 23C35 19.74 34.986 19.332 34.928 18.052C34.9079 17.0568 34.7192 16.0722 34.37 15.14C34.0617 14.3427 33.5902 13.6187 32.9858 13.0142C32.3813 12.4098 31.6573 11.9383 30.86 11.63C29.9275 11.281 28.9425 11.0927 27.947 11.073C26.667 11.013 26.26 11 23 11Z" fill="#2B9A9F"/>
</svg>
