<svg width="45" height="45" viewBox="0 0 45 45" fill="none" xmlns="http://www.w3.org/2000/svg">
<rect width="45" height="45" rx="22.5" fill="white"/>
<path d="M14.3335 9.33325H14.333C13.8024 9.33302 13.2931 9.54228 12.9159 9.91553L14.3335 9.33325ZM14.3335 9.33325C14.866 9.33325 15.3759 9.54331 15.7519 9.91519L14.3335 9.33325ZM12.334 11.3074C12.3345 11.5666 12.3862 11.8232 12.486 12.0625L11.5631 12.4474L12.334 11.3074ZM12.334 11.3074C12.3342 10.785 12.5423 10.2853 12.9159 9.91555L12.334 11.3074ZM21.0012 17.4638H23.3342V18.6221L25.2276 19.0713C25.6521 18.227 26.8656 17.2654 28.9635 17.2654C31.0947 17.2654 32.142 17.829 32.7314 18.6506C33.3835 19.5594 33.6673 21.0268 33.6673 23.2701V30.6666H31.0007V24.3026C31.0007 22.9672 30.8454 21.7608 30.3784 20.8566C30.136 20.3872 29.7973 19.9754 29.335 19.6854C28.8702 19.3939 28.3427 19.2648 27.7875 19.2648C26.4178 19.2648 25.3114 19.7709 24.5896 20.7735C23.9097 21.7181 23.6678 22.972 23.6678 24.3014V30.6666H21.0012V17.4638ZM12.2113 13.4118L12.9162 12.7024C12.9158 12.7021 12.9155 12.7017 12.9151 12.7013C12.9147 12.7009 12.9143 12.7006 12.9139 12.7002L12.2113 13.4118ZM15.6657 17.2654V30.4683H12.999V17.2654H15.6657Z" stroke="#2B9A9F" stroke-width="2"/>
</svg>
