<svg width="45" height="45" viewBox="0 0 45 45" fill="none" xmlns="http://www.w3.org/2000/svg">
<rect width="45" height="45" rx="22.5" fill="white"/>
<path d="M31.7118 16.241L32.028 17.1665C32.4157 17.1201 32.7962 17.0516 33.1684 16.9621C32.8164 17.3205 32.4342 17.6494 32.0255 17.9449L31.8069 18.103L31.819 18.3726C31.8277 18.5658 31.8325 18.7603 31.8325 18.9521C31.8325 24.8931 27.314 31.7061 19.0775 31.7061H19.0769C17.3106 31.708 15.5709 31.3409 13.9669 30.6366C15.8485 30.4632 17.6477 29.7512 19.1442 28.5764L20.2493 27.7089L18.8447 27.6832C17.9769 27.6673 17.1358 27.3804 16.4391 26.8627C15.9583 26.5054 15.5629 26.0505 15.2768 25.5313C15.7618 25.5393 16.247 25.4792 16.7181 25.3517L16.6865 24.379C15.7452 24.1888 14.8987 23.6788 14.2907 22.9355C13.8405 22.3852 13.5416 21.7322 13.4167 21.0405C13.9071 21.2112 14.4222 21.3072 14.9446 21.3238L16.6924 21.3794L15.2382 20.4083C14.6688 20.028 14.202 19.5131 13.8794 18.9092C13.5567 18.3053 13.3881 17.6311 13.3885 16.9464V16.9461C13.3885 16.4431 13.4781 15.9607 13.6422 15.5134C14.7602 16.7387 16.0925 17.7529 17.5758 18.5049C19.2926 19.3753 21.1731 19.8749 23.0954 19.9714L23.7591 20.0048L23.6073 19.3579C23.398 18.4658 23.489 17.5296 23.8663 16.6947C24.2436 15.8597 24.886 15.1726 25.6937 14.7401C26.5015 14.3076 27.4295 14.154 28.3335 14.3029C29.2376 14.4518 30.0672 14.8951 30.6936 15.5639L30.8829 15.7661L31.1548 15.7127C31.7429 15.5973 32.318 15.4284 32.8732 15.2087C32.5567 15.6192 32.1639 15.9705 31.7118 16.241Z" stroke="#2B9A9F"/>
</svg>
