<svg width="30" height="22" viewBox="0 0 30 22" fill="none" xmlns="http://www.w3.org/2000/svg">
<path d="M5.71162 9.82273C4.45057 10.14 3.34879 10.9069 2.61329 11.9793C1.87779 13.0517 1.5592 14.3557 1.71737 15.6464C1.87553 16.9372 2.49957 18.1257 3.47224 18.9887C4.44491 19.8518 5.69926 20.33 6.99962 20.3334H21.6663C22.6077 20.3328 23.5383 20.1327 24.3968 19.7465C25.2553 19.3603 26.0223 18.7967 26.6473 18.0927C27.2722 17.3887 27.741 16.5603 28.0228 15.6621C28.3046 14.7639 28.3929 13.8162 28.282 12.8813C28.1711 11.9465 27.8635 11.0457 27.3793 10.2384C26.8952 9.43101 26.2456 8.73532 25.4733 8.19711C24.7009 7.65889 23.8233 7.29035 22.8983 7.11574C21.9732 6.94113 21.0217 6.96442 20.1063 7.18406L18.333 7.66673" stroke="#F8F8F8" stroke-width="2" stroke-linecap="round" stroke-linejoin="round"/>
<path d="M20.1056 7.18403C19.6499 5.37946 18.525 3.81569 16.9591 2.80971C15.3931 1.80373 13.5033 1.43082 11.6726 1.76657C9.8419 2.10232 8.20736 3.12161 7.10033 4.61782C5.99329 6.11402 5.49659 7.97519 5.71091 9.82403C5.71091 9.82403 5.91491 11 6.33224 11.6667" stroke="#F8F8F8" stroke-width="2" stroke-linecap="round" stroke-linejoin="round"/>
</svg>
