<svg width="516" height="465" viewBox="0 0 516 465" fill="none" xmlns="http://www.w3.org/2000/svg">
<path d="M464.297 398.49H430.117V398.74H464.297V398.49Z" fill="#EBEBEB"/>
<path d="M341.82 401.21H332.852V401.46H341.82V401.21Z" fill="#EBEBEB"/>
<path d="M429.085 389.21H409.281V389.46H429.085V389.21Z" fill="#EBEBEB"/>
<path d="M98.7108 390.89H54.1387V391.14H98.7108V390.89Z" fill="#EBEBEB"/>
<path d="M114.439 390.89H107.906V391.14H114.439V390.89Z" fill="#EBEBEB"/>
<path d="M232.355 395.11H135.678V395.36H232.355V395.11Z" fill="#EBEBEB"/>
<path d="M244.585 337.8H45.3263C43.7635 337.8 42.2646 337.198 41.1595 336.128C40.0544 335.057 39.4336 333.604 39.4336 332.09V60.66C39.4472 59.1543 40.074 57.7147 41.1777 56.6547C42.2813 55.5947 43.7724 54.9999 45.3263 55H244.585C246.148 55 247.647 55.6016 248.752 56.6724C249.857 57.7433 250.478 59.1956 250.478 60.71V332.09C250.478 333.604 249.857 335.057 248.752 336.128C247.647 337.198 246.148 337.8 244.585 337.8ZM45.3263 55.2C43.8327 55.2026 42.4011 55.7787 41.345 56.8021C40.2889 57.8255 39.6943 59.2127 39.6916 60.66V332.09C39.6943 333.537 40.2889 334.924 41.345 335.948C42.4011 336.971 43.8327 337.547 45.3263 337.55H244.585C246.078 337.547 247.51 336.971 248.566 335.948C249.622 334.924 250.217 333.537 250.22 332.09V60.66C250.217 59.2127 249.622 57.8255 248.566 56.8021C247.51 55.7787 246.078 55.2026 244.585 55.2H45.3263Z" fill="#EBEBEB"/>
<path d="M467.816 337.8H268.537C266.975 337.797 265.478 337.195 264.373 336.125C263.269 335.054 262.647 333.604 262.645 332.09V60.66C262.661 59.1551 263.289 57.7171 264.392 56.6576C265.495 55.5981 266.984 55.0025 268.537 55H467.816C469.367 55.0052 470.853 55.6022 471.952 56.6617C473.051 57.7212 473.675 59.1578 473.689 60.66V332.09C473.689 333.601 473.071 335.05 471.97 336.121C470.869 337.191 469.376 337.795 467.816 337.8ZM268.537 55.2C267.044 55.2026 265.612 55.7787 264.556 56.8021C263.5 57.8255 262.905 59.2127 262.903 60.66V332.09C262.905 333.537 263.5 334.924 264.556 335.948C265.612 336.971 267.044 337.547 268.537 337.55H467.816C469.31 337.547 470.742 336.971 471.798 335.948C472.854 334.924 473.448 333.537 473.451 332.09V60.66C473.448 59.2127 472.854 57.8255 471.798 56.8021C470.742 55.7787 469.31 55.2026 467.816 55.2H268.537Z" fill="#EBEBEB"/>
<path d="M516 382.4H0V382.65H516V382.4Z" fill="#EBEBEB"/>
<path d="M430.086 94.67H301.303V227.56H430.086V94.67Z" fill="#EBEBEB"/>
<path d="M422.346 102.17H309.043V220.06H422.346V102.17Z" fill="#F5F5F5"/>
<path d="M353.512 220.06H387.568L419.539 102.17H385.483L353.512 220.06Z" fill="#FAFAFA"/>
<path d="M369.663 102.17L337.691 220.06H345.947L377.919 102.17H369.663Z" fill="#FAFAFA"/>
<path d="M431.707 100.92H299.673L296.887 94.62H434.494L431.707 100.92Z" fill="#F5F5F5"/>
<path d="M431.707 104.57H299.673L296.887 98.27H434.494L431.707 104.57Z" fill="#F0F0F0"/>
<path d="M431.707 108.22H299.673L296.887 101.92H434.494L431.707 108.22Z" fill="#E6E6E6"/>
<path d="M431.707 111.87H299.673L296.887 105.57H434.494L431.707 111.87Z" fill="#E0E0E0"/>
<path d="M439.303 86.73H292.088V95.13H439.303V86.73Z" fill="#E0E0E0"/>
<path d="M293.594 171.29C293.197 171.29 292.817 171.137 292.536 170.865C292.255 170.593 292.098 170.225 292.098 169.84V120.84C292.098 120.455 292.255 120.087 292.536 119.815C292.817 119.543 293.197 119.39 293.594 119.39C293.991 119.39 294.372 119.543 294.652 119.815C294.933 120.087 295.09 120.455 295.09 120.84V169.84C295.09 170.225 294.933 170.593 294.652 170.865C294.372 171.137 293.991 171.29 293.594 171.29Z" fill="#E0E0E0"/>
<path d="M294.13 93.45H293.047V122.55H294.13V93.45Z" fill="#E0E0E0"/>
<path d="M93.4162 92.1H91.5586V232.47H93.4162V92.1Z" fill="#E0E0E0"/>
<path d="M209.053 92.1H207.195V232.47H209.053V92.1Z" fill="#E0E0E0"/>
<path d="M216.337 100.92H84.2825L81.4961 94.62H219.113L216.337 100.92Z" fill="#F5F5F5"/>
<path d="M216.337 109.57H84.2825L81.4961 103.27H219.113L216.337 109.57Z" fill="#F5F5F5"/>
<path d="M216.337 118.22H84.2825L81.4961 111.92H219.113L216.337 118.22Z" fill="#F5F5F5"/>
<path d="M216.337 126.87H84.2825L81.4961 120.57H219.113L216.337 126.87Z" fill="#F5F5F5"/>
<path d="M216.337 135.52H84.2825L81.4961 129.22H219.113L216.337 135.52Z" fill="#F5F5F5"/>
<path d="M216.337 144.17H84.2825L81.4961 137.87H219.113L216.337 144.17Z" fill="#F5F5F5"/>
<path d="M216.337 152.82H84.2825L81.4961 146.52H219.113L216.337 152.82Z" fill="#F5F5F5"/>
<path d="M216.337 161.47H84.2825L81.4961 155.17H219.113L216.337 161.47Z" fill="#F5F5F5"/>
<path d="M216.337 170.12H84.2825L81.4961 163.82H219.113L216.337 170.12Z" fill="#F5F5F5"/>
<path d="M216.337 178.77H84.2825L81.4961 172.47H219.113L216.337 178.77Z" fill="#F5F5F5"/>
<path d="M216.337 187.42H84.2825L81.4961 181.12H219.113L216.337 187.42Z" fill="#F5F5F5"/>
<path d="M216.337 196.06H84.2825L81.4961 189.76H219.113L216.337 196.06Z" fill="#F5F5F5"/>
<path d="M216.337 204.72H84.2825L81.4961 198.41H219.113L216.337 204.72Z" fill="#F5F5F5"/>
<path d="M216.337 213.36H84.2825L81.4961 207.06H219.113L216.337 213.36Z" fill="#F5F5F5"/>
<path d="M216.337 222.01H84.2825L81.4961 215.71H219.113L216.337 222.01Z" fill="#F5F5F5"/>
<path d="M216.337 230.66H84.2825L81.4961 224.36H219.113L216.337 230.66Z" fill="#F5F5F5"/>
<path d="M219.113 230.66H81.4961V234.26H219.113V230.66Z" fill="#E0E0E0"/>
<path d="M223.914 86.73H76.6992V95.13H223.914V86.73Z" fill="#E0E0E0"/>
<path d="M78.2152 171.29C77.8183 171.29 77.4377 171.137 77.157 170.865C76.8764 170.593 76.7188 170.225 76.7188 169.84V120.84C76.7188 120.455 76.8764 120.087 77.157 119.815C77.4377 119.543 77.8183 119.39 78.2152 119.39C78.612 119.39 78.9926 119.543 79.2733 119.815C79.5539 120.087 79.7116 120.455 79.7116 120.84V169.84C79.7116 170.225 79.5539 170.593 79.2733 170.865C78.9926 171.137 78.612 171.29 78.2152 171.29Z" fill="#E0E0E0"/>
<path d="M78.7516 93.45H77.668V122.55H78.7516V93.45Z" fill="#E0E0E0"/>
<path d="M92.1776 322.38C92.0538 322.51 92.7452 323.45 89.9176 323.04C82.9516 322.04 70.8256 319.29 67.4509 312.35C62.6315 302.44 77.5748 306.06 77.0588 300.99C76.5428 295.92 59.5148 296.8 57.7295 289.37C55.9441 281.94 67.4612 285.48 67.616 281.86C67.7708 278.24 54.4787 280.48 51.8368 272.46C49.1948 264.44 59.2465 270.35 58.0907 267.01C56.9348 263.67 45.7067 248.6 51.8058 246.85C57.9049 245.1 68.2352 260.57 72.2394 262.76C76.2436 264.95 79.7524 252.32 84.4996 257.66C89.2468 263 81.7132 281.66 87.7607 285.27C92.2705 287.97 91.0012 280.54 96.9455 281.93C104.985 283.81 102.271 311.44 92.1776 322.38Z" fill="#EBEBEB"/>
<path d="M70.6815 281.9C72.7312 282.047 74.753 282.447 76.6981 283.09C75.4085 281.213 73.977 279.432 72.4153 277.76C72.3314 277.664 72.2881 277.54 72.294 277.415C72.2999 277.289 72.3546 277.17 72.4472 277.081C72.5398 276.993 72.6634 276.942 72.7933 276.938C72.9232 276.934 73.0499 276.977 73.148 277.06C76.5142 280.718 79.3952 284.769 81.7239 289.12C83.9221 276.33 78.3906 265.12 78.3287 265.04C78.2957 264.952 78.2976 264.855 78.3341 264.768C78.3706 264.681 78.439 264.61 78.5262 264.569C78.6134 264.528 78.7132 264.52 78.8063 264.546C78.8994 264.572 78.9792 264.63 79.0304 264.71C79.0923 264.83 84.9851 276.76 82.3122 290.18C83.0243 291.49 83.7467 292.9 84.4484 294.41C86.9455 299.793 88.9183 305.391 90.3411 311.13C92.9186 306.418 94.3317 301.191 94.4691 295.86C94.4705 295.811 94.4817 295.764 94.5021 295.719C94.5226 295.675 94.5518 295.635 94.5882 295.601C94.6247 295.568 94.6675 295.542 94.7144 295.524C94.7612 295.507 94.8111 295.499 94.8613 295.5C94.9128 295.501 94.9635 295.512 95.0106 295.533C95.0577 295.553 95.1002 295.582 95.1356 295.618C95.1711 295.655 95.1988 295.697 95.2173 295.744C95.2357 295.79 95.2445 295.84 95.2431 295.89C95.1193 301.606 93.5343 307.203 90.6301 312.18C93.2635 323.474 94.1435 335.085 93.2411 346.63C93.2371 346.696 93.2198 346.76 93.1902 346.819C93.1605 346.878 93.1191 346.931 93.0683 346.975C93.0175 347.019 92.9583 347.052 92.894 347.074C92.8298 347.095 92.7619 347.104 92.6941 347.1H92.6322C92.5073 347.078 92.3955 347.011 92.319 346.913C92.2425 346.815 92.207 346.692 92.2194 346.57C93.4887 328.57 90.723 314.16 86.8839 303.22C84.7536 300.829 81.8379 299.222 78.6279 298.67C78.5285 298.651 78.4403 298.596 78.381 298.516C78.3217 298.436 78.2956 298.338 78.308 298.24C78.3144 298.191 78.3307 298.144 78.356 298.102C78.3813 298.059 78.4151 298.022 78.4555 297.992C78.4958 297.962 78.5419 297.94 78.591 297.928C78.6401 297.916 78.6913 297.913 78.7415 297.92C81.5566 298.391 84.1681 299.649 86.2544 301.54C84.0242 295.454 81.0737 289.638 77.4618 284.21C75.2852 283.329 72.9734 282.802 70.6196 282.65C70.5174 282.642 70.4224 282.596 70.3548 282.521C70.2873 282.447 70.2527 282.349 70.2584 282.25C70.2609 282.2 70.2741 282.15 70.297 282.105C70.32 282.059 70.3523 282.019 70.3919 281.986C70.4315 281.954 70.4777 281.929 70.5275 281.914C70.5773 281.899 70.6297 281.894 70.6815 281.9Z" fill="#F5F5F5"/>
<path d="M101.136 326.21C106.926 326.31 116.813 321.1 120.744 316.04C124.676 310.98 113.603 314.04 114.738 310.04C115.873 306.04 129.537 308.99 132.055 303.2C134.573 297.41 124.728 298.75 125.12 295.79C125.512 292.83 135.719 293.44 138.99 287.29C142.262 281.14 133.294 284.59 134.697 282.04C136.101 279.49 147.36 268.77 142.654 266.54C137.948 264.31 127.391 275.47 123.861 276.72C120.332 277.97 119.496 270.25 114.893 273.94C110.29 277.63 113.737 293.75 108.33 295.88C104.294 297.47 106.008 290.08 101.364 291.95C93.1488 295.22 98.7525 326.16 101.136 326.21Z" fill="#E0E0E0"/>
<g opacity="0.3">
<path d="M101.136 326.21C106.926 326.31 116.813 321.1 120.744 316.04C124.676 310.98 113.603 314.04 114.738 310.04C115.873 306.04 129.537 308.99 132.055 303.2C134.573 297.41 124.728 298.75 125.12 295.79C125.512 292.83 135.719 293.44 138.99 287.29C142.262 281.14 133.294 284.59 134.697 282.04C136.101 279.49 147.36 268.77 142.654 266.54C137.948 264.31 127.391 275.47 123.861 276.72C120.332 277.97 119.496 270.25 114.893 273.94C110.29 277.63 113.737 293.75 108.33 295.88C104.294 297.47 106.008 290.08 101.364 291.95C93.1488 295.22 98.7525 326.16 101.136 326.21Z" fill="#E0E0E0"/>
</g>
<path d="M103.014 319.48C102.927 319.449 102.853 319.389 102.808 319.31C100.601 314.617 99.7044 309.444 100.207 304.31C100.204 304.256 100.212 304.201 100.232 304.15C100.252 304.1 100.284 304.054 100.324 304.015C100.364 303.977 100.412 303.948 100.465 303.929C100.517 303.911 100.574 303.903 100.63 303.908C100.686 303.912 100.74 303.928 100.789 303.955C100.838 303.981 100.881 304.017 100.914 304.061C100.948 304.105 100.971 304.155 100.982 304.209C100.994 304.262 100.993 304.317 100.981 304.37C100.549 309.244 101.353 314.146 103.324 318.65C105.717 312.394 108.665 306.352 112.137 300.59C111.105 288.59 117.483 278.69 117.545 278.59C117.599 278.506 117.686 278.447 117.786 278.426C117.885 278.404 117.99 278.422 118.076 278.475C118.162 278.528 118.223 278.612 118.246 278.709C118.268 278.805 118.25 278.906 118.195 278.99C114.506 285.197 112.653 292.269 112.839 299.43C117 292.513 121.965 286.081 127.638 280.26C127.684 280.208 127.741 280.166 127.806 280.136C127.87 280.107 127.94 280.09 128.011 280.088C128.082 280.086 128.153 280.098 128.219 280.124C128.285 280.149 128.345 280.188 128.394 280.237C128.444 280.286 128.483 280.345 128.509 280.409C128.534 280.473 128.546 280.542 128.542 280.611C128.539 280.68 128.521 280.747 128.49 280.809C128.459 280.871 128.414 280.926 128.36 280.97C124.169 285.243 120.387 289.875 117.06 294.81C120.546 293.538 124.243 292.894 127.968 292.91C128.07 292.915 128.166 292.959 128.235 293.032C128.305 293.105 128.342 293.201 128.339 293.3C128.337 293.396 128.295 293.488 128.224 293.555C128.153 293.622 128.057 293.66 127.957 293.66C123.953 293.627 119.983 294.379 116.286 295.87C114.006 299.262 111.905 302.763 109.99 306.36C111.545 305.315 113.315 304.609 115.179 304.291C117.043 303.973 118.956 304.052 120.785 304.52C120.885 304.546 120.97 304.609 121.022 304.695C121.074 304.781 121.089 304.883 121.064 304.98C121.051 305.028 121.028 305.072 120.997 305.111C120.966 305.15 120.927 305.182 120.883 305.207C120.839 305.231 120.79 305.246 120.739 305.252C120.689 305.258 120.638 305.254 120.589 305.24C118.606 304.745 116.527 304.731 114.537 305.199C112.546 305.666 110.705 306.601 109.175 307.92C102.521 320.701 98.7267 334.7 98.0398 349C98.0345 349.129 97.9778 349.251 97.8816 349.341C97.7854 349.43 97.6572 349.48 97.5238 349.48C97.3905 349.48 97.2623 349.43 97.1661 349.341C97.0699 349.251 97.0131 349.129 97.0078 349C97.4409 338.92 99.4665 328.965 103.014 319.48Z" fill="#F5F5F5"/>
<path d="M84.8199 381C79.2987 370.94 75.666 356.4 75.666 350C75.6927 347.391 76.3112 344.819 77.4775 342.467C78.6439 340.115 80.3296 338.041 82.4153 336.39H110.702C112.788 338.041 114.474 340.115 115.64 342.467C116.807 344.819 117.425 347.391 117.452 350C117.452 356.38 113.819 370.92 108.298 381H84.8199Z" fill="#F0F0F0"/>
<path d="M253.026 423.71C363.535 423.71 453.121 418.642 453.121 412.39C453.121 406.138 363.535 401.07 253.026 401.07C142.517 401.07 52.9316 406.138 52.9316 412.39C52.9316 418.642 142.517 423.71 253.026 423.71Z" fill="#F5F5F5"/>
<path d="M302.014 119.64H277.246C276.439 119.657 275.662 119.934 275.037 120.429C274.412 120.924 273.976 121.607 273.799 122.37L273.634 123.12C273.206 124.981 272.145 126.648 270.622 127.854C269.098 129.06 267.201 129.735 265.234 129.77H241.704C239.838 129.81 238.031 129.134 236.677 127.888C235.324 126.642 234.534 124.928 234.48 123.12V122.37C234.461 121.629 234.14 120.926 233.586 120.414C233.033 119.902 232.293 119.624 231.528 119.64H206.76C202.693 119.71 198.792 121.222 195.797 123.89C192.802 126.559 190.92 130.198 190.506 134.12L170.63 354.66C170.42 356.504 170.618 358.37 171.211 360.134C171.803 361.898 172.777 363.52 174.067 364.891C175.356 366.262 176.933 367.351 178.691 368.085C180.449 368.819 182.349 369.182 184.263 369.15H279.485C283.554 369.077 287.455 367.563 290.45 364.893C293.445 362.223 295.326 358.583 295.739 354.66L315.657 134.12C315.866 132.276 315.666 130.41 315.072 128.646C314.478 126.883 313.504 125.262 312.213 123.892C310.922 122.522 309.345 121.434 307.586 120.701C305.828 119.968 303.928 119.606 302.014 119.64Z" fill="#2B9A9F"/>
<path opacity="0.7" d="M302.014 119.64H277.246C276.439 119.657 275.662 119.934 275.037 120.429C274.412 120.924 273.976 121.607 273.799 122.37L273.634 123.12C273.206 124.981 272.145 126.648 270.622 127.854C269.098 129.06 267.201 129.735 265.234 129.77H241.704C239.838 129.81 238.031 129.134 236.677 127.888C235.324 126.642 234.534 124.928 234.48 123.12V122.37C234.461 121.629 234.14 120.926 233.586 120.414C233.033 119.902 232.293 119.624 231.528 119.64H206.76C202.693 119.71 198.792 121.222 195.797 123.89C192.802 126.559 190.92 130.198 190.506 134.12L170.63 354.66C170.42 356.504 170.618 358.37 171.211 360.134C171.803 361.898 172.777 363.52 174.067 364.891C175.356 366.262 176.933 367.351 178.691 368.085C180.449 368.819 182.349 369.182 184.263 369.15H279.485C283.554 369.077 287.455 367.563 290.45 364.893C293.445 362.223 295.326 358.583 295.739 354.66L315.657 134.12C315.866 132.276 315.666 130.41 315.072 128.646C314.478 126.883 313.504 125.262 312.213 123.892C310.922 122.522 309.345 121.434 307.586 120.701C305.828 119.968 303.928 119.606 302.014 119.64Z" fill="white"/>
<path d="M292.365 221.08H241.797C241.372 221.087 240.95 221.006 240.559 220.842C240.169 220.679 239.818 220.437 239.531 220.133C239.245 219.828 239.028 219.468 238.895 219.076C238.763 218.684 238.718 218.27 238.763 217.86L242.571 175.67C242.662 174.798 243.08 173.988 243.746 173.395C244.412 172.801 245.279 172.465 246.183 172.45H296.751C297.177 172.442 297.6 172.522 297.991 172.685C298.383 172.847 298.734 173.089 299.021 173.394C299.308 173.699 299.525 174.06 299.657 174.452C299.789 174.845 299.832 175.26 299.785 175.67L295.977 217.86C295.884 218.731 295.466 219.54 294.8 220.133C294.135 220.726 293.269 221.063 292.365 221.08Z" fill="white"/>
<path d="M275.542 353H190.918C189.861 353.019 188.811 352.819 187.84 352.414C186.868 352.009 185.997 351.408 185.284 350.651C184.571 349.894 184.033 348.998 183.706 348.024C183.378 347.05 183.269 346.019 183.385 345C183.614 342.834 184.654 340.824 186.308 339.35C187.962 337.876 190.116 337.04 192.363 337H276.987C278.045 336.981 279.094 337.181 280.066 337.586C281.037 337.991 281.908 338.592 282.621 339.349C283.334 340.106 283.872 341.001 284.2 341.976C284.527 342.95 284.637 343.981 284.521 345C284.294 347.167 283.255 349.178 281.6 350.653C279.945 352.127 277.79 352.962 275.542 353Z" fill="white"/>
<path d="M282.282 160.85H204.645C204.05 160.867 203.458 160.76 202.909 160.535C202.361 160.309 201.87 159.972 201.469 159.545C201.068 159.119 200.767 158.613 200.587 158.064C200.406 157.514 200.351 156.933 200.424 156.36L201.053 149.36C201.184 148.146 201.768 147.021 202.696 146.196C203.624 145.371 204.831 144.903 206.09 144.88H283.727C284.32 144.87 284.908 144.982 285.452 145.208C285.997 145.435 286.485 145.771 286.886 146.195C287.286 146.619 287.588 147.12 287.773 147.666C287.958 148.211 288.021 148.789 287.958 149.36L287.318 156.36C287.19 157.575 286.607 158.703 285.679 159.53C284.751 160.358 283.543 160.827 282.282 160.85Z" fill="white"/>
<path d="M298.071 149.12C298.036 149.459 297.873 149.773 297.615 150.004C297.356 150.234 297.019 150.364 296.667 150.37C296.502 150.372 296.339 150.341 296.187 150.277C296.036 150.214 295.9 150.12 295.789 150.002C295.678 149.883 295.594 149.744 295.542 149.592C295.491 149.44 295.473 149.279 295.491 149.12C295.527 148.782 295.689 148.469 295.948 148.24C296.207 148.011 296.544 147.883 296.895 147.88C297.059 147.876 297.222 147.907 297.374 147.969C297.525 148.031 297.661 148.124 297.773 148.242C297.884 148.359 297.968 148.498 298.02 148.65C298.071 148.801 298.089 148.961 298.071 149.12Z" fill="white"/>
<path d="M297.731 152.86C297.698 153.198 297.537 153.512 297.28 153.743C297.023 153.973 296.688 154.104 296.337 154.11C296.172 154.112 296.009 154.081 295.857 154.017C295.706 153.954 295.57 153.86 295.459 153.742C295.348 153.623 295.264 153.484 295.212 153.332C295.161 153.18 295.143 153.019 295.161 152.86C295.194 152.522 295.354 152.208 295.611 151.977C295.868 151.747 296.204 151.616 296.554 151.61C296.719 151.608 296.883 151.639 297.034 151.703C297.186 151.766 297.321 151.86 297.433 151.978C297.544 152.097 297.628 152.236 297.679 152.388C297.731 152.54 297.748 152.701 297.731 152.86Z" fill="white"/>
<path d="M297.401 156.59C297.366 156.929 297.203 157.243 296.945 157.474C296.686 157.704 296.349 157.834 295.998 157.84C295.833 157.842 295.669 157.811 295.517 157.747C295.366 157.684 295.23 157.59 295.119 157.472C295.008 157.353 294.924 157.214 294.872 157.062C294.821 156.91 294.804 156.749 294.821 156.59C294.856 156.251 295.019 155.937 295.278 155.706C295.536 155.476 295.873 155.346 296.225 155.34C296.39 155.338 296.553 155.369 296.705 155.433C296.856 155.496 296.992 155.59 297.103 155.708C297.214 155.827 297.298 155.966 297.35 156.118C297.401 156.27 297.419 156.431 297.401 156.59Z" fill="white"/>
<path d="M286.08 290.68H191.621C191.195 290.688 190.772 290.608 190.381 290.445C189.989 290.283 189.638 290.041 189.351 289.736C189.064 289.431 188.847 289.07 188.715 288.678C188.583 288.285 188.54 287.87 188.587 287.46L192.983 239.31C193.074 238.438 193.492 237.628 194.157 237.035C194.823 236.441 195.691 236.105 196.595 236.09H291.023C291.448 236.083 291.87 236.164 292.26 236.328C292.65 236.491 293 236.733 293.286 237.038C293.572 237.342 293.788 237.703 293.919 238.094C294.05 238.486 294.094 238.901 294.047 239.31L289.702 287.46C289.611 288.334 289.192 289.145 288.524 289.738C287.856 290.332 286.986 290.667 286.08 290.68Z" fill="white"/>
<path d="M217.607 300.74H188.195C188.091 300.742 187.989 300.723 187.894 300.683C187.8 300.644 187.715 300.585 187.645 300.511C187.576 300.437 187.524 300.35 187.492 300.255C187.46 300.16 187.45 300.059 187.462 299.96C187.482 299.747 187.583 299.548 187.745 299.403C187.906 299.257 188.118 299.174 188.339 299.17H217.751C217.855 299.168 217.958 299.187 218.054 299.227C218.15 299.267 218.235 299.327 218.305 299.402C218.374 299.477 218.426 299.566 218.457 299.662C218.488 299.758 218.497 299.86 218.484 299.96C218.461 300.171 218.359 300.367 218.198 300.511C218.036 300.655 217.826 300.736 217.607 300.74Z" fill="white"/>
<path d="M254.367 300.74H222.799C222.695 300.744 222.591 300.725 222.495 300.686C222.399 300.648 222.313 300.589 222.242 300.515C222.172 300.441 222.119 300.353 222.086 300.257C222.054 300.162 222.044 300.06 222.056 299.96C222.076 299.747 222.177 299.548 222.338 299.403C222.5 299.257 222.712 299.174 222.933 299.17H254.512C254.616 299.168 254.719 299.187 254.815 299.227C254.911 299.267 254.996 299.327 255.066 299.402C255.135 299.477 255.187 299.566 255.218 299.662C255.249 299.758 255.258 299.86 255.245 299.96C255.222 300.171 255.12 300.367 254.959 300.511C254.797 300.655 254.587 300.736 254.367 300.74Z" fill="white"/>
<path d="M207.432 307.69H187.576C187.471 307.692 187.368 307.672 187.272 307.633C187.176 307.593 187.09 307.533 187.019 307.458C186.949 307.384 186.896 307.295 186.864 307.199C186.832 307.102 186.821 307.001 186.833 306.9C186.855 306.688 186.957 306.49 187.118 306.345C187.279 306.2 187.49 306.116 187.71 306.11H207.607C207.711 306.11 207.814 306.13 207.909 306.171C208.004 306.211 208.09 306.271 208.16 306.345C208.23 306.419 208.283 306.507 208.316 306.603C208.348 306.699 208.36 306.8 208.35 306.9C208.327 307.119 208.22 307.322 208.049 307.468C207.879 307.615 207.659 307.694 207.432 307.69Z" fill="white"/>
<path d="M245.245 307.69H212.654C212.55 307.692 212.446 307.672 212.35 307.633C212.254 307.593 212.168 307.533 212.097 307.458C212.027 307.384 211.974 307.295 211.942 307.199C211.91 307.102 211.899 307.001 211.911 306.9C211.934 306.686 212.036 306.487 212.2 306.342C212.364 306.196 212.576 306.114 212.798 306.11H245.379C245.483 306.108 245.587 306.128 245.683 306.167C245.779 306.207 245.865 306.267 245.935 306.342C246.006 306.416 246.059 306.505 246.091 306.601C246.123 306.698 246.134 306.799 246.122 306.9C246.101 307.113 246.001 307.312 245.839 307.457C245.677 307.603 245.465 307.686 245.245 307.69Z" fill="white"/>
<path d="M239.98 314.63H186.945C186.841 314.634 186.738 314.615 186.642 314.577C186.546 314.538 186.459 314.479 186.389 314.405C186.318 314.331 186.265 314.243 186.233 314.147C186.201 314.052 186.19 313.95 186.202 313.85C186.225 313.636 186.328 313.437 186.491 313.292C186.655 313.146 186.868 313.064 187.09 313.06H240.124C240.228 313.06 240.331 313.08 240.426 313.121C240.521 313.161 240.607 313.221 240.677 313.295C240.747 313.369 240.8 313.457 240.833 313.553C240.865 313.649 240.877 313.75 240.867 313.85C240.842 314.062 240.738 314.258 240.575 314.402C240.412 314.545 240.2 314.627 239.98 314.63Z" fill="white"/>
<path d="M248.711 314.63H245.213C245.109 314.634 245.005 314.615 244.909 314.577C244.813 314.538 244.727 314.479 244.656 314.405C244.586 314.331 244.533 314.243 244.5 314.147C244.468 314.052 244.458 313.95 244.47 313.85C244.49 313.637 244.591 313.438 244.752 313.293C244.914 313.147 245.126 313.064 245.347 313.06H248.856C248.96 313.058 249.063 313.077 249.159 313.117C249.254 313.157 249.34 313.217 249.409 313.292C249.479 313.367 249.531 313.456 249.562 313.552C249.593 313.648 249.602 313.75 249.588 313.85C249.566 314.061 249.464 314.257 249.302 314.401C249.141 314.545 248.93 314.626 248.711 314.63Z" fill="white"/>
<path d="M211.075 321.58H186.307C186.203 321.58 186.1 321.56 186.005 321.519C185.91 321.479 185.824 321.419 185.754 321.345C185.684 321.271 185.631 321.183 185.598 321.087C185.566 320.991 185.554 320.89 185.564 320.79C185.587 320.576 185.69 320.377 185.853 320.232C186.017 320.086 186.23 320.004 186.452 320H211.22C211.324 319.998 211.428 320.018 211.524 320.057C211.62 320.097 211.706 320.157 211.776 320.232C211.847 320.306 211.9 320.395 211.932 320.491C211.964 320.588 211.974 320.689 211.963 320.79C211.94 321.004 211.837 321.203 211.674 321.348C211.51 321.494 211.297 321.576 211.075 321.58Z" fill="white"/>
<path d="M247.102 321.58H216.266C216.162 321.58 216.059 321.56 215.964 321.519C215.869 321.479 215.783 321.419 215.713 321.345C215.643 321.271 215.59 321.183 215.557 321.087C215.525 320.991 215.513 320.89 215.523 320.79C215.546 320.576 215.649 320.377 215.812 320.232C215.976 320.086 216.189 320.004 216.411 320H247.236C247.341 319.998 247.445 320.018 247.541 320.057C247.637 320.097 247.723 320.157 247.793 320.232C247.863 320.306 247.916 320.395 247.949 320.491C247.981 320.588 247.991 320.689 247.979 320.79C247.957 321.002 247.856 321.2 247.694 321.345C247.533 321.49 247.322 321.574 247.102 321.58Z" fill="white"/>
<path d="M216.184 328.52H185.688C185.584 328.522 185.481 328.503 185.385 328.463C185.289 328.423 185.204 328.363 185.134 328.288C185.065 328.213 185.013 328.124 184.982 328.028C184.951 327.932 184.942 327.83 184.955 327.73C184.978 327.519 185.08 327.323 185.241 327.179C185.403 327.035 185.613 326.954 185.832 326.95H216.318C216.422 326.946 216.525 326.965 216.621 327.003C216.717 327.042 216.803 327.101 216.874 327.175C216.945 327.249 216.998 327.337 217.03 327.433C217.062 327.528 217.073 327.63 217.061 327.73C217.04 327.943 216.94 328.142 216.778 328.287C216.616 328.433 216.404 328.516 216.184 328.52Z" fill="white"/>
<path d="M245.925 328.52H221.364C221.26 328.522 221.156 328.503 221.061 328.463C220.965 328.423 220.88 328.363 220.81 328.288C220.741 328.213 220.688 328.124 220.658 328.028C220.627 327.932 220.618 327.83 220.631 327.73C220.654 327.519 220.755 327.323 220.917 327.179C221.079 327.035 221.289 326.954 221.508 326.95H246.07C246.174 326.946 246.277 326.965 246.373 327.003C246.469 327.042 246.556 327.101 246.626 327.175C246.697 327.249 246.75 327.337 246.782 327.433C246.814 327.528 246.825 327.63 246.813 327.73C246.79 327.944 246.687 328.143 246.524 328.288C246.36 328.434 246.147 328.516 245.925 328.52Z" fill="white"/>
<path d="M291.167 217.08C291.078 217.18 290.969 217.261 290.846 217.32C290.724 217.379 290.59 217.413 290.454 217.422C290.318 217.43 290.181 217.412 290.052 217.369C289.923 217.326 289.804 217.258 289.702 217.17L247.462 178.11C247.27 177.923 247.162 177.669 247.162 177.405C247.162 177.141 247.27 176.887 247.462 176.7C247.552 176.6 247.661 176.519 247.784 176.46C247.906 176.401 248.039 176.367 248.176 176.358C248.312 176.35 248.449 176.368 248.578 176.411C248.707 176.454 248.826 176.522 248.928 176.61L291.167 215.67C291.36 215.857 291.467 216.111 291.467 216.375C291.467 216.639 291.36 216.893 291.167 217.08Z" fill="#2B9A9F"/>
<path d="M243.726 217.07C243.642 216.964 243.581 216.842 243.547 216.713C243.512 216.583 243.505 216.448 243.525 216.316C243.545 216.183 243.592 216.056 243.664 215.942C243.736 215.827 243.831 215.728 243.943 215.65L265.491 198.58C265.696 198.408 265.962 198.321 266.233 198.338C266.503 198.355 266.756 198.474 266.936 198.67C267.018 198.776 267.078 198.897 267.112 199.025C267.146 199.154 267.153 199.288 267.133 199.419C267.112 199.55 267.065 199.676 266.995 199.79C266.924 199.903 266.83 200.002 266.719 200.08L245.171 217.16C244.966 217.332 244.7 217.419 244.43 217.402C244.16 217.385 243.907 217.266 243.726 217.07Z" fill="#2B9A9F"/>
<path d="M271.571 195C271.489 194.894 271.429 194.773 271.395 194.645C271.361 194.516 271.354 194.382 271.375 194.251C271.395 194.12 271.442 193.994 271.513 193.88C271.583 193.767 271.677 193.668 271.788 193.59L293.377 176.49C293.582 176.318 293.848 176.232 294.119 176.248C294.389 176.265 294.641 176.384 294.822 176.58C294.904 176.686 294.964 176.807 294.998 176.935C295.032 177.064 295.039 177.198 295.018 177.329C294.998 177.46 294.951 177.586 294.88 177.7C294.809 177.813 294.716 177.912 294.605 177.99L273.016 195.09C272.811 195.262 272.545 195.349 272.274 195.332C272.004 195.315 271.751 195.196 271.571 195Z" fill="#2B9A9F"/>
<g opacity="0.7">
<path d="M291.167 217.08C291.078 217.18 290.969 217.261 290.846 217.32C290.724 217.379 290.59 217.413 290.454 217.422C290.318 217.43 290.181 217.412 290.052 217.369C289.923 217.326 289.804 217.258 289.702 217.17L247.462 178.11C247.27 177.923 247.162 177.669 247.162 177.405C247.162 177.141 247.27 176.887 247.462 176.7C247.552 176.6 247.661 176.519 247.784 176.46C247.906 176.401 248.039 176.367 248.176 176.358C248.312 176.35 248.449 176.368 248.578 176.411C248.707 176.454 248.826 176.522 248.928 176.61L291.167 215.67C291.36 215.857 291.467 216.111 291.467 216.375C291.467 216.639 291.36 216.893 291.167 217.08Z" fill="white"/>
</g>
<g opacity="0.7">
<path d="M243.726 217.07C243.642 216.964 243.581 216.842 243.547 216.713C243.512 216.583 243.505 216.448 243.525 216.316C243.545 216.183 243.592 216.056 243.664 215.942C243.736 215.827 243.831 215.728 243.943 215.65L265.491 198.58C265.696 198.408 265.962 198.321 266.233 198.338C266.503 198.355 266.756 198.474 266.936 198.67C267.018 198.776 267.078 198.897 267.112 199.025C267.146 199.154 267.153 199.288 267.133 199.419C267.112 199.55 267.065 199.676 266.995 199.79C266.924 199.903 266.83 200.002 266.719 200.08L245.171 217.16C244.966 217.332 244.7 217.419 244.43 217.402C244.16 217.385 243.907 217.266 243.726 217.07Z" fill="white"/>
</g>
<g opacity="0.7">
<path d="M271.571 195C271.489 194.894 271.429 194.773 271.395 194.645C271.361 194.516 271.354 194.382 271.375 194.251C271.395 194.12 271.442 193.994 271.513 193.88C271.583 193.767 271.677 193.668 271.788 193.59L293.377 176.49C293.582 176.318 293.848 176.232 294.119 176.248C294.389 176.265 294.641 176.384 294.822 176.58C294.904 176.686 294.964 176.807 294.998 176.935C295.032 177.064 295.039 177.198 295.018 177.329C294.998 177.46 294.951 177.586 294.88 177.7C294.809 177.813 294.716 177.912 294.605 177.99L273.016 195.09C272.811 195.262 272.545 195.349 272.274 195.332C272.004 195.315 271.751 195.196 271.571 195Z" fill="white"/>
</g>
<path d="M171.044 114.84H157.628C156.329 114.845 155.085 115.349 154.168 116.241C153.251 117.133 152.736 118.341 152.736 119.6V132.6C152.736 133.862 153.254 135.073 154.175 135.966C155.096 136.859 156.346 137.36 157.649 137.36H171.065C172.367 137.36 173.617 136.859 174.538 135.966C175.459 135.073 175.977 133.862 175.977 132.6V119.6C175.977 118.973 175.849 118.353 175.601 117.774C175.353 117.195 174.989 116.669 174.531 116.227C174.073 115.785 173.529 115.435 172.93 115.197C172.332 114.959 171.691 114.837 171.044 114.84ZM164.367 119.44C166.379 119.44 167.463 121.03 167.463 122.98C167.463 124.93 166.379 126.52 164.367 126.52C162.355 126.52 161.271 124.94 161.271 122.98C161.271 121.02 162.344 119.44 164.367 119.44ZM172.427 132.71H156.297C156.232 132.71 156.167 132.698 156.107 132.674C156.047 132.65 155.992 132.615 155.946 132.57L156.978 129.84C157.3 128.979 157.888 128.235 158.661 127.709C159.435 127.183 160.357 126.901 161.302 126.9H167.401C168.348 126.9 169.271 127.182 170.046 127.708C170.822 128.234 171.411 128.978 171.735 129.84L172.767 132.57C172.723 132.614 172.67 132.649 172.612 132.673C172.553 132.698 172.49 132.71 172.427 132.71Z" fill="#2B9A9F"/>
<path opacity="0.7" d="M171.044 114.84H157.628C156.329 114.845 155.085 115.349 154.168 116.241C153.251 117.133 152.736 118.341 152.736 119.6V132.6C152.736 133.862 153.254 135.073 154.175 135.966C155.096 136.859 156.346 137.36 157.649 137.36H171.065C172.367 137.36 173.617 136.859 174.538 135.966C175.459 135.073 175.977 133.862 175.977 132.6V119.6C175.977 118.973 175.849 118.353 175.601 117.774C175.353 117.195 174.989 116.669 174.531 116.227C174.073 115.785 173.529 115.435 172.93 115.197C172.332 114.959 171.691 114.837 171.044 114.84ZM164.367 119.44C166.379 119.44 167.463 121.03 167.463 122.98C167.463 124.93 166.379 126.52 164.367 126.52C162.355 126.52 161.271 124.94 161.271 122.98C161.271 121.02 162.344 119.44 164.367 119.44ZM172.427 132.71H156.297C156.232 132.71 156.167 132.698 156.107 132.674C156.047 132.65 155.992 132.615 155.946 132.57L156.978 129.84C157.3 128.979 157.888 128.235 158.661 127.709C159.435 127.183 160.357 126.901 161.302 126.9H167.401C168.348 126.9 169.271 127.182 170.046 127.708C170.822 128.234 171.411 128.978 171.735 129.84L172.767 132.57C172.723 132.614 172.67 132.649 172.612 132.673C172.553 132.698 172.49 132.71 172.427 132.71Z" fill="white"/>
<path d="M123.489 168.12H113.334C112.466 168.119 111.606 168.283 110.803 168.604C110.001 168.925 109.271 169.397 108.657 169.991C108.042 170.585 107.555 171.291 107.222 172.069C106.89 172.846 106.719 173.679 106.719 174.52V184.36C106.719 186.06 107.416 187.69 108.656 188.893C109.897 190.095 111.579 190.77 113.334 190.77H123.489C124.357 190.77 125.217 190.604 126.019 190.282C126.821 189.96 127.549 189.487 128.163 188.892C128.776 188.297 129.262 187.59 129.594 186.812C129.925 186.035 130.095 185.201 130.094 184.36V174.52C130.095 173.679 129.925 172.846 129.594 172.069C129.262 171.292 128.776 170.586 128.162 169.992C127.548 169.397 126.82 168.926 126.018 168.605C125.216 168.283 124.356 168.119 123.489 168.12ZM118.411 184.81C118.411 184.81 114.283 180.42 114.283 178.18C114.283 177.107 114.723 176.078 115.506 175.32C116.289 174.561 117.351 174.135 118.458 174.135C119.565 174.135 120.627 174.561 121.41 175.32C122.192 176.078 122.632 177.107 122.632 178.18C122.581 180.42 118.411 184.81 118.411 184.81Z" fill="#2B9A9F"/>
<path d="M118.412 176.34C118.033 176.338 117.663 176.445 117.347 176.648C117.032 176.85 116.785 177.139 116.639 177.477C116.494 177.816 116.455 178.189 116.528 178.548C116.602 178.908 116.784 179.239 117.051 179.498C117.319 179.757 117.66 179.934 118.031 180.005C118.403 180.076 118.787 180.038 119.137 179.897C119.486 179.756 119.784 179.517 119.993 179.212C120.202 178.906 120.313 178.547 120.311 178.18C120.311 177.692 120.11 177.224 119.754 176.879C119.398 176.534 118.915 176.34 118.412 176.34Z" fill="#2B9A9F"/>
<g opacity="0.7">
<path d="M123.489 168.12H113.334C112.466 168.119 111.606 168.283 110.803 168.604C110.001 168.925 109.271 169.397 108.657 169.991C108.042 170.585 107.555 171.291 107.222 172.069C106.89 172.846 106.719 173.679 106.719 174.52V184.36C106.719 186.06 107.416 187.69 108.656 188.893C109.897 190.095 111.579 190.77 113.334 190.77H123.489C124.357 190.77 125.217 190.604 126.019 190.282C126.821 189.96 127.549 189.487 128.163 188.892C128.776 188.297 129.262 187.59 129.594 186.812C129.925 186.035 130.095 185.201 130.094 184.36V174.52C130.095 173.679 129.925 172.846 129.594 172.069C129.262 171.292 128.776 170.586 128.162 169.992C127.548 169.397 126.82 168.926 126.018 168.605C125.216 168.283 124.356 168.119 123.489 168.12ZM118.411 184.81C118.411 184.81 114.283 180.42 114.283 178.18C114.283 177.107 114.723 176.078 115.506 175.32C116.289 174.561 117.351 174.135 118.458 174.135C119.565 174.135 120.627 174.561 121.41 175.32C122.192 176.078 122.632 177.107 122.632 178.18C122.581 180.42 118.411 184.81 118.411 184.81Z" fill="white"/>
<path d="M118.412 176.34C118.033 176.338 117.663 176.445 117.347 176.648C117.032 176.85 116.785 177.139 116.639 177.477C116.494 177.816 116.455 178.189 116.528 178.548C116.602 178.908 116.784 179.239 117.051 179.498C117.319 179.757 117.66 179.934 118.031 180.005C118.403 180.076 118.787 180.038 119.137 179.897C119.486 179.756 119.784 179.517 119.993 179.212C120.202 178.906 120.313 178.547 120.311 178.18C120.311 177.692 120.11 177.224 119.754 176.879C119.398 176.534 118.915 176.34 118.412 176.34Z" fill="white"/>
</g>
<path d="M346.441 140.23L353.242 135.97L346.441 131.7V140.23Z" fill="#2B9A9F"/>
<path d="M355.204 124.34H342.242C340.778 124.34 339.373 124.904 338.338 125.907C337.302 126.91 336.721 128.271 336.721 129.69V142.25C336.723 143.668 337.306 145.027 338.341 146.03C339.376 147.033 340.778 147.597 342.242 147.6H355.204C356.668 147.6 358.072 147.036 359.108 146.033C360.143 145.03 360.725 143.669 360.725 142.25V129.69C360.726 128.987 360.584 128.291 360.308 127.641C360.031 126.991 359.624 126.401 359.111 125.904C358.598 125.407 357.989 125.013 357.318 124.745C356.648 124.476 355.929 124.339 355.204 124.34ZM348.723 144.34C347.014 144.34 345.344 143.849 343.923 142.929C342.502 142.009 341.395 140.701 340.742 139.171C340.088 137.641 339.918 135.957 340.252 134.333C340.586 132.71 341.41 131.218 342.619 130.048C343.828 128.878 345.368 128.081 347.044 127.76C348.72 127.438 350.457 127.605 352.036 128.24C353.614 128.875 354.962 129.949 355.91 131.327C356.858 132.705 357.363 134.324 357.361 135.98C357.359 137.078 357.135 138.165 356.7 139.178C356.265 140.192 355.629 141.113 354.826 141.888C354.024 142.664 353.073 143.279 352.025 143.697C350.978 144.116 349.856 144.331 348.723 144.33V144.34Z" fill="#2B9A9F"/>
<g opacity="0.7">
<path d="M346.441 140.23L353.242 135.97L346.441 131.7V140.23Z" fill="white"/>
<path d="M355.204 124.34H342.242C340.778 124.34 339.373 124.904 338.338 125.907C337.302 126.91 336.721 128.271 336.721 129.69V142.25C336.723 143.668 337.306 145.027 338.341 146.03C339.376 147.033 340.778 147.597 342.242 147.6H355.204C356.668 147.6 358.072 147.036 359.108 146.033C360.143 145.03 360.725 143.669 360.725 142.25V129.69C360.726 128.987 360.584 128.291 360.308 127.641C360.031 126.991 359.624 126.401 359.111 125.904C358.598 125.407 357.989 125.013 357.318 124.745C356.648 124.476 355.929 124.339 355.204 124.34ZM348.723 144.34C347.014 144.34 345.344 143.849 343.923 142.929C342.502 142.009 341.395 140.701 340.742 139.171C340.088 137.641 339.918 135.957 340.252 134.333C340.586 132.71 341.41 131.218 342.619 130.048C343.828 128.878 345.368 128.081 347.044 127.76C348.72 127.438 350.457 127.605 352.036 128.24C353.614 128.875 354.962 129.949 355.91 131.327C356.858 132.705 357.363 134.324 357.361 135.98C357.359 137.078 357.135 138.165 356.7 139.178C356.265 140.192 355.629 141.113 354.826 141.888C354.024 142.664 353.073 143.279 352.025 143.697C350.978 144.116 349.856 144.331 348.723 144.33V144.34Z" fill="white"/>
</g>
<path d="M367.928 172.51C367.928 172.25 367.928 171.99 367.928 171.74L369.486 170.9C369.373 170.185 369.179 169.484 368.908 168.81H367.133C366.907 168.341 366.638 167.892 366.328 167.47L367.247 166C366.776 165.436 366.247 164.92 365.668 164.46L364.14 165.35C363.707 165.055 363.247 164.798 362.768 164.58V162.85C362.07 162.594 361.347 162.407 360.611 162.29L359.744 163.8C359.486 163.8 359.218 163.8 358.949 163.8C358.681 163.8 358.423 163.8 358.155 163.8L357.288 162.29C356.552 162.409 355.83 162.597 355.131 162.85V164.58C354.65 164.795 354.191 165.053 353.758 165.35L352.231 164.46C351.646 164.917 351.113 165.433 350.642 166L351.56 167.47C351.258 167.895 350.992 168.343 350.766 168.81H348.991C348.721 169.485 348.524 170.186 348.402 170.9L349.961 171.74C349.961 171.99 349.961 172.25 349.961 172.51C349.961 172.77 349.961 173.03 349.961 173.28L348.402 174.12C348.523 174.835 348.72 175.535 348.991 176.21H350.766C350.992 176.677 351.258 177.125 351.56 177.55L350.642 179.03C351.116 179.591 351.649 180.104 352.231 180.56L353.758 179.67C354.188 179.971 354.648 180.228 355.131 180.44V182.17C355.828 182.428 356.551 182.615 357.288 182.73L358.155 181.22C358.423 181.22 358.681 181.22 358.949 181.22C359.218 181.22 359.486 181.22 359.744 181.22L360.611 182.73C361.348 182.618 362.071 182.43 362.768 182.17V180.44C363.25 180.226 363.709 179.968 364.14 179.67L365.668 180.56C366.244 180.101 366.773 179.589 367.247 179.03L366.328 177.55C366.638 177.128 366.907 176.679 367.133 176.21H368.908C369.18 175.536 369.374 174.835 369.486 174.12L367.928 173.28C367.907 173 367.928 172.77 367.928 172.51ZM358.929 178.43C357.72 178.43 356.539 178.083 355.535 177.432C354.53 176.782 353.747 175.857 353.284 174.775C352.822 173.694 352.701 172.503 352.937 171.355C353.172 170.207 353.754 169.152 354.609 168.324C355.463 167.496 356.552 166.932 357.737 166.704C358.922 166.475 360.15 166.593 361.267 167.041C362.383 167.489 363.337 168.247 364.009 169.221C364.68 170.195 365.038 171.339 365.038 172.51C365.038 174.08 364.395 175.586 363.249 176.696C362.103 177.806 360.549 178.43 358.929 178.43Z" fill="#2B9A9F"/>
<path opacity="0.7" d="M367.928 172.51C367.928 172.25 367.928 171.99 367.928 171.74L369.486 170.9C369.373 170.185 369.179 169.484 368.908 168.81H367.133C366.907 168.341 366.638 167.892 366.328 167.47L367.247 166C366.776 165.436 366.247 164.92 365.668 164.46L364.14 165.35C363.707 165.055 363.247 164.798 362.768 164.58V162.85C362.07 162.594 361.347 162.407 360.611 162.29L359.744 163.8C359.486 163.8 359.218 163.8 358.949 163.8C358.681 163.8 358.423 163.8 358.155 163.8L357.288 162.29C356.552 162.409 355.83 162.597 355.131 162.85V164.58C354.65 164.795 354.191 165.053 353.758 165.35L352.231 164.46C351.646 164.917 351.113 165.433 350.642 166L351.56 167.47C351.258 167.895 350.992 168.343 350.766 168.81H348.991C348.721 169.485 348.524 170.186 348.402 170.9L349.961 171.74C349.961 171.99 349.961 172.25 349.961 172.51C349.961 172.77 349.961 173.03 349.961 173.28L348.402 174.12C348.523 174.835 348.72 175.535 348.991 176.21H350.766C350.992 176.677 351.258 177.125 351.56 177.55L350.642 179.03C351.116 179.591 351.649 180.104 352.231 180.56L353.758 179.67C354.188 179.971 354.648 180.228 355.131 180.44V182.17C355.828 182.428 356.551 182.615 357.288 182.73L358.155 181.22C358.423 181.22 358.681 181.22 358.949 181.22C359.218 181.22 359.486 181.22 359.744 181.22L360.611 182.73C361.348 182.618 362.071 182.43 362.768 182.17V180.44C363.25 180.226 363.709 179.968 364.14 179.67L365.668 180.56C366.244 180.101 366.773 179.589 367.247 179.03L366.328 177.55C366.638 177.128 366.907 176.679 367.133 176.21H368.908C369.18 175.536 369.374 174.835 369.486 174.12L367.928 173.28C367.907 173 367.928 172.77 367.928 172.51ZM358.929 178.43C357.72 178.43 356.539 178.083 355.535 177.432C354.53 176.782 353.747 175.857 353.284 174.775C352.822 173.694 352.701 172.503 352.937 171.355C353.172 170.207 353.754 169.152 354.609 168.324C355.463 167.496 356.552 166.932 357.737 166.704C358.922 166.475 360.15 166.593 361.267 167.041C362.383 167.489 363.337 168.247 364.009 169.221C364.68 170.195 365.038 171.339 365.038 172.51C365.038 174.08 364.395 175.586 363.249 176.696C362.103 177.806 360.549 178.43 358.929 178.43Z" fill="white"/>
<path d="M344.409 202.24C344.409 201.85 344.409 201.47 344.357 201.09L346.69 199.84C346.514 198.767 346.224 197.715 345.823 196.7L343.16 196.75C342.824 196.05 342.423 195.38 341.963 194.75L343.336 192.54C342.633 191.699 341.841 190.931 340.972 190.25L338.692 191.57C338.038 191.131 337.348 190.746 336.628 190.42V187.84C335.585 187.45 334.502 187.169 333.398 187L332.108 189.26C331.715 189.26 331.323 189.26 330.921 189.26C330.518 189.26 330.126 189.26 329.734 189.26L328.475 187C327.371 187.171 326.289 187.453 325.245 187.84V190.42C324.524 190.746 323.834 191.13 323.181 191.57L320.952 190.25C320.08 190.931 319.285 191.699 318.578 192.54L319.951 194.75C319.494 195.381 319.096 196.05 318.764 196.75L316.101 196.7C315.696 197.713 315.405 198.766 315.234 199.84L317.567 201.09C317.484 201.855 317.484 202.625 317.567 203.39L315.234 204.65C315.406 205.721 315.697 206.77 316.101 207.78L318.764 207.73C319.094 208.431 319.492 209.101 319.951 209.73L318.578 211.94C319.285 212.781 320.08 213.549 320.952 214.23L323.232 212.91C323.883 213.353 324.574 213.738 325.296 214.06V216.64C326.339 217.032 327.422 217.313 328.527 217.48L329.827 215.22C330.616 215.3 331.411 215.3 332.2 215.22L333.49 217.48C334.596 217.316 335.679 217.034 336.721 216.64V214.06C337.443 213.738 338.134 213.353 338.785 212.91L341.065 214.23C341.934 213.549 342.726 212.781 343.429 211.94L342.056 209.73C342.518 209.101 342.919 208.431 343.253 207.73L345.916 207.78C346.315 206.768 346.606 205.72 346.783 204.65L344.45 203.39C344.388 203 344.409 202.63 344.409 202.24ZM330.993 207.38C329.944 207.38 328.918 207.079 328.046 206.514C327.174 205.949 326.494 205.146 326.092 204.207C325.691 203.268 325.586 202.234 325.79 201.237C325.995 200.24 326.5 199.324 327.242 198.605C327.984 197.887 328.929 197.397 329.958 197.199C330.987 197 332.054 197.102 333.023 197.491C333.992 197.88 334.821 198.539 335.404 199.384C335.986 200.23 336.298 201.223 336.298 202.24C336.298 202.918 336.159 203.588 335.891 204.214C335.622 204.84 335.229 205.407 334.733 205.885C334.237 206.363 333.649 206.741 333.002 206.997C332.354 207.254 331.661 207.384 330.962 207.38H330.993Z" fill="#2B9A9F"/>
<path opacity="0.7" d="M344.409 202.24C344.409 201.85 344.409 201.47 344.357 201.09L346.69 199.84C346.514 198.767 346.224 197.715 345.823 196.7L343.16 196.75C342.824 196.05 342.423 195.38 341.963 194.75L343.336 192.54C342.633 191.699 341.841 190.931 340.972 190.25L338.692 191.57C338.038 191.131 337.348 190.746 336.628 190.42V187.84C335.585 187.45 334.502 187.169 333.398 187L332.108 189.26C331.715 189.26 331.323 189.26 330.921 189.26C330.518 189.26 330.126 189.26 329.734 189.26L328.475 187C327.371 187.171 326.289 187.453 325.245 187.84V190.42C324.524 190.746 323.834 191.13 323.181 191.57L320.952 190.25C320.08 190.931 319.285 191.699 318.578 192.54L319.951 194.75C319.494 195.381 319.096 196.05 318.764 196.75L316.101 196.7C315.696 197.713 315.405 198.766 315.234 199.84L317.567 201.09C317.484 201.855 317.484 202.625 317.567 203.39L315.234 204.65C315.406 205.721 315.697 206.77 316.101 207.78L318.764 207.73C319.094 208.431 319.492 209.101 319.951 209.73L318.578 211.94C319.285 212.781 320.08 213.549 320.952 214.23L323.232 212.91C323.883 213.353 324.574 213.738 325.296 214.06V216.64C326.339 217.032 327.422 217.313 328.527 217.48L329.827 215.22C330.616 215.3 331.411 215.3 332.2 215.22L333.49 217.48C334.596 217.316 335.679 217.034 336.721 216.64V214.06C337.443 213.738 338.134 213.353 338.785 212.91L341.065 214.23C341.934 213.549 342.726 212.781 343.429 211.94L342.056 209.73C342.518 209.101 342.919 208.431 343.253 207.73L345.916 207.78C346.315 206.768 346.606 205.72 346.783 204.65L344.45 203.39C344.388 203 344.409 202.63 344.409 202.24ZM330.993 207.38C329.944 207.38 328.918 207.079 328.046 206.514C327.174 205.949 326.494 205.146 326.092 204.207C325.691 203.268 325.586 202.234 325.79 201.237C325.995 200.24 326.5 199.324 327.242 198.605C327.984 197.887 328.929 197.397 329.958 197.199C330.987 197 332.054 197.102 333.023 197.491C333.992 197.88 334.821 198.539 335.404 199.384C335.986 200.23 336.298 201.223 336.298 202.24C336.298 202.918 336.159 203.588 335.891 204.214C335.622 204.84 335.229 205.407 334.733 205.885C334.237 206.363 333.649 206.741 333.002 206.997C332.354 207.254 331.661 207.384 330.962 207.38H330.993Z" fill="white"/>
<path d="M306.503 144.26V149.5L301.343 152.13C301.143 152.234 300.975 152.389 300.858 152.579C300.741 152.768 300.68 152.984 300.68 153.205C300.68 153.426 300.741 153.642 300.858 153.831C300.975 154.021 301.143 154.176 301.343 154.28L306.503 156.91V162.15C306.503 162.71 306.733 163.246 307.141 163.642C307.55 164.038 308.103 164.26 308.681 164.26H327.143C327.722 164.26 328.277 164.038 328.687 163.643C329.097 163.247 329.329 162.711 329.331 162.15V144.26C329.331 143.698 329.101 143.159 328.69 142.761C328.28 142.363 327.724 142.14 327.143 142.14H308.65C308.076 142.148 307.529 142.375 307.127 142.772C306.725 143.169 306.501 143.704 306.503 144.26Z" fill="#2B9A9F"/>
<g opacity="0.9">
<path d="M312.819 149.72H323.315C323.657 149.72 323.985 149.588 324.227 149.354C324.469 149.119 324.605 148.802 324.605 148.47C324.605 148.138 324.469 147.821 324.227 147.586C323.985 147.352 323.657 147.22 323.315 147.22H312.819C312.477 147.22 312.149 147.352 311.907 147.586C311.665 147.821 311.529 148.138 311.529 148.47C311.529 148.802 311.665 149.119 311.907 149.354C312.149 149.588 312.477 149.72 312.819 149.72Z" fill="white"/>
<path d="M323.315 152H312.819C312.477 152 312.149 152.132 311.907 152.366C311.665 152.601 311.529 152.918 311.529 153.25C311.529 153.582 311.665 153.899 311.907 154.134C312.149 154.368 312.477 154.5 312.819 154.5H323.315C323.657 154.5 323.985 154.368 324.227 154.134C324.469 153.899 324.605 153.582 324.605 153.25C324.605 152.918 324.469 152.601 324.227 152.366C323.985 152.132 323.657 152 323.315 152Z" fill="white"/>
<path d="M323.315 156.69H312.819C312.477 156.69 312.149 156.822 311.907 157.056C311.665 157.291 311.529 157.608 311.529 157.94C311.529 158.272 311.665 158.589 311.907 158.824C312.149 159.058 312.477 159.19 312.819 159.19H323.315C323.657 159.19 323.985 159.058 324.227 158.824C324.469 158.589 324.605 158.272 324.605 157.94C324.605 157.608 324.469 157.291 324.227 157.056C323.985 156.822 323.657 156.69 323.315 156.69Z" fill="white"/>
</g>
<path d="M202.169 136H206.575L208.846 140.17C208.995 140.442 209.219 140.669 209.491 140.828C209.764 140.986 210.076 141.07 210.394 141.07C210.712 141.07 211.024 140.986 211.296 140.828C211.569 140.669 211.792 140.442 211.942 140.17L214.212 136H218.619C219.037 136 219.451 135.92 219.838 135.765C220.224 135.609 220.575 135.381 220.87 135.094C221.165 134.807 221.399 134.467 221.558 134.092C221.718 133.717 221.799 133.315 221.797 132.91V117C221.797 116.183 221.463 115.4 220.866 114.822C220.27 114.245 219.462 113.92 218.619 113.92H202.169C201.751 113.919 201.337 113.997 200.951 114.152C200.565 114.306 200.214 114.533 199.918 114.819C199.623 115.105 199.389 115.445 199.229 115.82C199.07 116.194 198.989 116.595 198.99 117V133C199.012 133.803 199.356 134.566 199.95 135.126C200.544 135.687 201.34 136 202.169 136Z" fill="#2B9A9F"/>
<path opacity="0.9" d="M210.404 118.69L205.326 121.57V129.99H209.103V124.34H211.714V129.99H215.491V121.57L210.404 118.69Z" fill="white"/>
<path d="M251.602 364.79H247.68L245.152 360.13C245.027 359.904 244.84 359.716 244.613 359.584C244.386 359.453 244.127 359.384 243.862 359.384C243.597 359.384 243.338 359.453 243.111 359.584C242.884 359.716 242.698 359.904 242.572 360.13L240.044 364.79H236.019C235.058 364.79 234.137 365.16 233.457 365.818C232.778 366.476 232.396 367.369 232.396 368.3V383.4C232.396 384.331 232.778 385.224 233.457 385.882C234.137 386.54 235.058 386.91 236.019 386.91H251.602C252.563 386.91 253.484 386.54 254.163 385.882C254.843 385.224 255.224 384.331 255.224 383.4V368.3C255.224 367.369 254.843 366.476 254.163 365.818C253.484 365.16 252.563 364.79 251.602 364.79Z" fill="#2B9A9F"/>
<path opacity="0.9" d="M246.019 370.56C245.262 369.826 244.305 369.317 243.26 369.091C242.215 368.865 241.126 368.932 240.119 369.285C239.112 369.637 238.23 370.26 237.575 371.081C236.92 371.902 236.52 372.886 236.422 373.919C236.324 374.952 236.532 375.991 237.02 376.913C237.509 377.836 238.26 378.605 239.183 379.13C240.106 379.654 241.165 379.913 242.235 379.876C243.305 379.839 244.342 379.507 245.224 378.92C245.267 379.168 245.386 379.398 245.564 379.58L249.073 382.97C249.31 383.199 249.631 383.328 249.966 383.328C250.301 383.328 250.622 383.199 250.859 382.97C251.095 382.741 251.228 382.429 251.228 382.105C251.228 381.781 251.095 381.469 250.859 381.24L247.36 377.85C247.172 377.67 246.93 377.551 246.669 377.51C247.411 376.459 247.752 375.19 247.633 373.922C247.514 372.653 246.943 371.465 246.019 370.56ZM244.821 377.13C244.268 377.665 243.564 378.029 242.798 378.177C242.031 378.324 241.237 378.248 240.515 377.958C239.793 377.668 239.176 377.177 238.742 376.547C238.308 375.918 238.076 375.177 238.076 374.42C238.076 373.663 238.308 372.922 238.742 372.293C239.176 371.663 239.793 371.172 240.515 370.882C241.237 370.592 242.031 370.516 242.798 370.663C243.564 370.811 244.268 371.175 244.821 371.71C245.189 372.066 245.481 372.488 245.68 372.953C245.879 373.418 245.981 373.917 245.981 374.42C245.981 374.923 245.879 375.422 245.68 375.887C245.481 376.352 245.189 376.774 244.821 377.13Z" fill="white"/>
<path d="M418.259 264.23C418.259 264.23 409.848 284.43 401.612 286.61C393.377 288.79 380.973 287.02 380.973 287.02L377.133 288.02L373.367 287.48H373.233L368.991 287.38C368.838 287.392 368.685 287.362 368.549 287.293C368.413 287.223 368.3 287.118 368.224 286.988C368.149 286.859 368.112 286.712 368.12 286.563C368.128 286.414 368.179 286.271 368.269 286.15L369.786 284.15C369.913 283.986 370.09 283.864 370.291 283.8L374.337 282.54C374.496 282.505 374.662 282.505 374.822 282.54L381.014 283.49C381.014 283.49 398.197 280.76 399.951 279.22C401.705 277.68 406.876 261.53 406.876 261.53L418.259 264.23Z" fill="#EEC1BB"/>
<path opacity="0.1" d="M381.397 283.36L380.994 283.42L374.802 282.47C374.643 282.435 374.477 282.435 374.317 282.47L370.272 283.73C370.07 283.794 369.894 283.916 369.766 284.08L368.249 286.08C368.16 286.201 368.108 286.344 368.101 286.493C368.093 286.642 368.129 286.789 368.205 286.918C368.281 287.048 368.393 287.153 368.529 287.223C368.665 287.292 368.818 287.322 368.971 287.31L373.213 287.41H373.347L375.876 287.77C378.032 286.717 379.919 285.21 381.397 283.36Z" fill="black"/>
<path d="M423.336 244.22C417.227 242.28 408.63 246.73 405.338 265.37L418.021 269C418.021 269 432.067 247 423.336 244.22Z" fill="#2B9A9F"/>
<path d="M387.795 219.86C387.795 220.48 388.135 220.97 388.548 220.97C388.961 220.97 389.322 220.44 389.291 219.84C389.26 219.24 388.951 218.74 388.538 218.75C388.125 218.76 387.795 219.25 387.795 219.86Z" fill="#263238"/>
<path d="M390.292 220.47L387.289 225.28C387.289 225.28 388.321 226.42 390.581 225.58L390.292 220.47Z" fill="#D4827D"/>
<path d="M390.86 216C390.824 216.04 390.777 216.071 390.724 216.088C390.672 216.106 390.616 216.11 390.561 216.1C390.155 216.032 389.738 216.06 389.345 216.18C388.952 216.3 388.594 216.509 388.301 216.79C388.238 216.847 388.155 216.879 388.069 216.879C387.983 216.879 387.9 216.847 387.837 216.79C387.777 216.727 387.744 216.645 387.744 216.56C387.744 216.475 387.777 216.393 387.837 216.33C388.201 215.969 388.651 215.699 389.147 215.544C389.643 215.389 390.171 215.353 390.685 215.44C390.728 215.445 390.77 215.458 390.809 215.479C390.847 215.5 390.88 215.528 390.907 215.561C390.934 215.595 390.954 215.633 390.965 215.674C390.977 215.715 390.98 215.758 390.974 215.8C390.958 215.876 390.918 215.946 390.86 216Z" fill="#263238"/>
<path d="M412.078 215.5C412.542 223.63 412.924 227.07 409.219 231.69C403.306 236.64 393.234 237.43 390.261 229.6C387.589 222.6 387.279 210.47 395.04 206.28C396.356 205.569 397.804 205.117 399.301 204.949C400.798 204.781 402.314 204.9 403.764 205.301C405.213 205.701 406.566 206.374 407.747 207.282C408.927 208.189 409.912 209.313 410.643 210.59C411.502 212.099 411.993 213.779 412.078 215.5Z" fill="#EEC1BB"/>
<path d="M400.385 233.29L402.511 245.34L412.872 243.02L409.25 230.72L400.385 233.29Z" fill="#EEC1BB"/>
<path d="M392.923 216.1C393.45 210.82 391.571 216.92 389.053 209.95C386.535 202.98 398.434 197.32 400.333 198.62C402.232 199.92 401.148 201.91 407.444 203.04C409.161 203.304 410.72 204.166 411.829 205.463C412.939 206.761 413.522 208.406 413.47 210.09C413.47 210.09 417.093 211.71 415.803 219.25C414.856 224.081 412.733 228.624 409.611 232.5C409.611 232.5 407.227 230.12 403.419 232.31C401.933 231.37 400.675 230.128 399.735 228.67C398.042 226.21 397.516 223.87 395.194 223.67C390.343 223.24 392.748 217.84 392.923 216.1Z" fill="#263238"/>
<path d="M412.801 211C412.801 211 417.961 207.94 415.67 204.73C413.379 201.52 414.483 208.27 412.801 211Z" fill="#263238"/>
<path d="M394.399 219.17C393.254 220.41 392.664 222.039 392.758 223.7C392.902 225.9 395.131 226.29 396.886 225.09C398.64 223.89 400.302 221.55 399.29 219.62C399.066 219.199 398.736 218.839 398.331 218.574C397.926 218.308 397.458 218.146 396.971 218.101C396.484 218.056 395.994 218.131 395.544 218.317C395.095 218.504 394.701 218.797 394.399 219.17Z" fill="#FFC3BD"/>
<path opacity="0.1" d="M400.582 234.43L401.428 239.21C401.354 238.026 401.522 236.84 401.922 235.719C402.322 234.599 402.947 233.566 403.761 232.68C403.129 232.719 402.514 232.897 401.963 233.2C401.413 233.504 400.94 233.924 400.582 234.43Z" fill="black"/>
<path d="M327.731 265.51H324.77V282.44H327.731V265.51Z" fill="#2B9A9F"/>
<path opacity="0.7" d="M327.731 265.51H324.77V282.44H327.731V265.51Z" fill="white"/>
<path d="M307.382 231.89H300.003C298.676 231.89 297.403 232.401 296.464 233.311C295.525 234.22 294.998 235.454 294.998 236.74V269.87C294.998 270.507 295.127 271.138 295.379 271.726C295.631 272.314 295.999 272.849 296.464 273.299C296.929 273.75 297.481 274.107 298.088 274.351C298.695 274.595 299.346 274.72 300.003 274.72H307.382V231.89Z" fill="#2B9A9F"/>
<path d="M352.51 231.89H302.581C299.817 231.89 297.576 234.061 297.576 236.74V269.86C297.576 272.539 299.817 274.71 302.581 274.71H352.51C355.274 274.71 357.515 272.539 357.515 269.86V236.74C357.515 234.061 355.274 231.89 352.51 231.89Z" fill="#2B9A9F"/>
<path opacity="0.5" d="M352.51 231.89H302.581C299.817 231.89 297.576 234.061 297.576 236.74V269.86C297.576 272.539 299.817 274.71 302.581 274.71H352.51C355.274 274.71 357.515 272.539 357.515 269.86V236.74C357.515 234.061 355.274 231.89 352.51 231.89Z" fill="white"/>
<path d="M352.51 233.89H302.582C300.957 233.89 299.641 235.166 299.641 236.74V269.86C299.641 271.434 300.957 272.71 302.582 272.71H352.51C354.134 272.71 355.451 271.434 355.451 269.86V236.74C355.451 235.166 354.134 233.89 352.51 233.89Z" fill="#263238"/>
<path d="M315.473 289.54C315.559 286.826 316.733 284.251 318.745 282.361C320.757 280.47 323.449 279.413 326.252 279.413C329.054 279.413 331.747 280.47 333.759 282.361C335.771 284.251 336.944 286.826 337.031 289.54H315.473Z" fill="#2B9A9F"/>
<path d="M340.91 285.98H319.352V289.37H362.469V287.98L340.91 285.98Z" fill="#2B9A9F"/>
<path opacity="0.8" d="M340.91 285.98H319.352V289.37H362.469V287.98L340.91 285.98Z" fill="white"/>
<path d="M340.91 289.37H319.352V285.98L340.91 287.98V289.37Z" fill="#2B9A9F"/>
<path opacity="0.6" d="M340.91 289.37H319.352V285.98L340.91 287.98V289.37Z" fill="white"/>
<path d="M388.445 406.08H343.976C343.089 406.081 342.21 405.913 341.39 405.585C340.57 405.257 339.825 404.775 339.197 404.168C338.569 403.561 338.071 402.839 337.732 402.045C337.392 401.251 337.217 400.4 337.217 399.54V300.46C337.217 299.6 337.392 298.749 337.732 297.955C338.071 297.161 338.569 296.439 339.197 295.832C339.825 295.225 340.57 294.743 341.39 294.415C342.21 294.087 343.089 293.919 343.976 293.92H388.445C388.924 293.92 389.384 294.104 389.722 294.433C390.061 294.761 390.251 295.206 390.251 295.67C390.251 296.134 390.061 296.579 389.722 296.907C389.384 297.236 388.924 297.42 388.445 297.42H343.976C343.565 297.413 343.157 297.486 342.776 297.634C342.394 297.782 342.047 298.002 341.754 298.281C341.461 298.56 341.228 298.893 341.069 299.26C340.91 299.628 340.829 300.022 340.829 300.42V399.5C340.829 399.898 340.91 400.292 341.069 400.66C341.228 401.027 341.461 401.36 341.754 401.639C342.047 401.918 342.394 402.138 342.776 402.286C343.157 402.434 343.565 402.507 343.976 402.5H388.445C388.924 402.5 389.384 402.684 389.722 403.013C390.061 403.341 390.251 403.786 390.251 404.25C390.262 404.486 390.224 404.723 390.138 404.944C390.052 405.166 389.921 405.368 389.752 405.539C389.584 405.711 389.381 405.847 389.156 405.94C388.931 406.032 388.69 406.08 388.445 406.08Z" fill="#263238"/>
<g opacity="0.5">
<path d="M388.445 406.08H343.976C343.089 406.081 342.21 405.913 341.39 405.585C340.57 405.257 339.825 404.775 339.197 404.168C338.569 403.561 338.071 402.839 337.732 402.045C337.392 401.251 337.217 400.4 337.217 399.54V300.46C337.217 299.6 337.392 298.749 337.732 297.955C338.071 297.161 338.569 296.439 339.197 295.832C339.825 295.225 340.57 294.743 341.39 294.415C342.21 294.087 343.089 293.919 343.976 293.92H388.445C388.924 293.92 389.384 294.104 389.722 294.433C390.061 294.761 390.251 295.206 390.251 295.67C390.251 296.134 390.061 296.579 389.722 296.907C389.384 297.236 388.924 297.42 388.445 297.42H343.976C343.565 297.413 343.157 297.486 342.776 297.634C342.394 297.782 342.047 298.002 341.754 298.281C341.461 298.56 341.228 298.893 341.069 299.26C340.91 299.628 340.829 300.022 340.829 300.42V399.5C340.829 399.898 340.91 400.292 341.069 400.66C341.228 401.027 341.461 401.36 341.754 401.639C342.047 401.918 342.394 402.138 342.776 402.286C343.157 402.434 343.565 402.507 343.976 402.5H388.445C388.924 402.5 389.384 402.684 389.722 403.013C390.061 403.341 390.251 403.786 390.251 404.25C390.262 404.486 390.224 404.723 390.138 404.944C390.052 405.166 389.921 405.368 389.752 405.539C389.584 405.711 389.381 405.847 389.156 405.94C388.931 406.032 388.69 406.08 388.445 406.08Z" fill="white"/>
</g>
<path d="M343.8 289.37H280.652V294.5H343.8V289.37Z" fill="#2B9A9F"/>
<path opacity="0.2" d="M343.8 289.37H280.652V294.5H343.8V289.37Z" fill="white"/>
<path d="M394.77 289.37H340.91V294.5H394.77V289.37Z" fill="#2B9A9F"/>
<path opacity="0.5" d="M394.77 289.37H340.91V294.5H394.77V289.37Z" fill="white"/>
<path d="M375.885 369.73L378.867 398.95H371.726L364.574 370.49L375.885 369.73Z" fill="#EEC1BB"/>
<path d="M371.056 397L380.169 397.15C380.335 397.154 380.495 397.212 380.623 397.316C380.75 397.419 380.838 397.562 380.87 397.72L382.398 404.93C382.462 405.236 382.4 405.554 382.224 405.816C382.048 406.078 381.773 406.263 381.459 406.33H381.201C377.908 406.22 375.009 406 370.881 405.93C366.061 405.85 367.269 406.43 361.593 406.42C358.177 406.42 357.619 402.63 359.064 402.47C365.721 401.77 366.443 399.84 369.044 397.58C369.618 397.154 370.334 396.948 371.056 397Z" fill="#263238"/>
<path opacity="0.1" d="M378.093 391.32L375.885 369.73L364.574 370.49L369.806 391.32H378.093Z" fill="black"/>
<path d="M424.782 302.36L395.494 303.36C395.494 303.36 356.04 316.73 355.008 327C353.873 337.58 367.124 386.19 367.124 386.19H378.899C378.899 386.19 375.648 350.52 374.41 339.6C373.172 328.68 415.473 332.29 422.821 322.98C429.539 314.44 424.782 302.36 424.782 302.36Z" fill="#263238"/>
<path opacity="0.2" d="M424.782 302.36L395.494 303.36C395.494 303.36 356.04 316.73 355.008 327C353.873 337.58 367.124 386.19 367.124 386.19H378.899C378.899 386.19 375.648 350.52 374.41 339.6C373.172 328.68 415.473 332.29 422.821 322.98C429.539 314.44 424.782 302.36 424.782 302.36Z" fill="black"/>
<path d="M380.86 384.59L381.118 388.62H366.567L365.143 384.59H380.86Z" fill="#2B9A9F"/>
<path d="M348.631 371.12L349.415 398.95H342.397L338.238 371.12H348.631Z" fill="#EEC1BB"/>
<path d="M341.427 397L350.54 397.15C350.706 397.154 350.866 397.212 350.994 397.316C351.121 397.419 351.209 397.562 351.241 397.72L352.769 404.93C352.833 405.236 352.771 405.554 352.595 405.816C352.419 406.078 352.145 406.263 351.83 406.33H351.572C348.28 406.22 345.38 406 341.252 405.93C336.422 405.85 337.64 406.43 331.964 406.42C328.548 406.42 327.99 402.63 329.435 402.47C336.092 401.77 336.814 399.84 339.415 397.58C339.989 397.152 340.705 396.946 341.427 397Z" fill="#263238"/>
<path opacity="0.1" d="M349.198 391.3L348.631 371.12H338.238L341.262 391.32C343.522 391.33 346.628 391.31 349.198 391.3Z" fill="black"/>
<path d="M412.047 304.71C412.047 304.71 414.483 326.29 391.83 327.3C369.178 328.31 351.49 330.82 350.974 338.63C350.458 346.44 350.974 386.23 350.974 386.23H338.662C338.662 386.23 333.873 361.07 332.005 345.47C330.189 330.32 326.845 319.33 342.914 314.2C359.973 308.74 390.293 303.7 390.293 303.7L412.13 302.36L412.047 304.71Z" fill="#263238"/>
<path d="M352.79 384.59L352.016 388.62H338.496L337.072 384.59H352.79Z" fill="#2B9A9F"/>
<path d="M416.929 242.8C416.929 242.8 416.929 237.94 406.784 238.5C396.01 239.1 398.043 243.76 398.043 243.76L416.929 242.8Z" fill="#2B9A9F"/>
<path opacity="0.3" d="M416.929 242.8C416.929 242.8 416.929 237.94 406.784 238.5C396.01 239.1 398.043 243.76 398.043 243.76L416.929 242.8Z" fill="black"/>
<path d="M426.381 264.6C425.7 274.21 425.938 303.12 425.938 303.12C425.938 303.12 404.266 304.5 387.258 303.96L385.287 248.35C385.295 247.367 385.608 246.409 386.186 245.6C386.764 244.792 387.58 244.172 388.528 243.82C393.337 242.01 404.627 239.96 422.284 242.21C428.373 243 427.186 253.24 426.381 264.6Z" fill="#2B9A9F"/>
<path d="M388.765 264.23C388.765 264.23 380.343 284.43 372.118 286.61C363.893 288.79 351.478 287.02 351.478 287.02L347.639 288.02L343.883 287.48H343.749L339.497 287.38C339.344 287.392 339.19 287.362 339.055 287.293C338.919 287.223 338.806 287.118 338.73 286.988C338.654 286.859 338.618 286.712 338.626 286.563C338.634 286.414 338.685 286.271 338.774 286.15L340.302 284.15C340.429 283.986 340.606 283.864 340.807 283.8L344.843 282.54C345.006 282.505 345.175 282.505 345.338 282.54L351.53 283.49C351.53 283.49 368.713 280.76 370.457 279.22C372.201 277.68 377.392 261.53 377.392 261.53L388.765 264.23Z" fill="#EEC1BB"/>
<path opacity="0.1" d="M388.548 254.83C388.548 254.83 387.238 256.34 385.648 258.52L386.216 274.62C392.542 271.91 395.05 256.13 395.05 256.13L390.922 253.31L388.548 254.83Z" fill="black"/>
<path d="M393.842 244.22C387.733 242.28 379.126 246.73 375.834 265.37L388.528 268.96C388.528 268.96 402.573 247 393.842 244.22Z" fill="#2B9A9F"/>
<path d="M401.923 337.77H392.377V364.88H401.923V337.77Z" fill="#263238"/>
<path opacity="0.6" d="M401.923 337.77H392.377V364.88H401.923V337.77Z" fill="white"/>
<path d="M403.399 389.44V355H390.891V389.44L362.418 393.27V397.1L397.145 394.23L431.872 397.1V393.27L403.399 389.44Z" fill="#263238"/>
<path d="M362.005 406.49C364.085 406.49 365.772 404.856 365.772 402.84C365.772 400.824 364.085 399.19 362.005 399.19C359.925 399.19 358.238 400.824 358.238 402.84C358.238 404.856 359.925 406.49 362.005 406.49Z" fill="#2B9A9F"/>
<path d="M431.872 406.49C433.953 406.49 435.639 404.856 435.639 402.84C435.639 400.824 433.953 399.19 431.872 399.19C429.792 399.19 428.105 400.824 428.105 402.84C428.105 404.856 429.792 406.49 431.872 406.49Z" fill="#2B9A9F"/>
<path d="M397.144 406.49C399.224 406.49 400.911 404.856 400.911 402.84C400.911 400.824 399.224 399.19 397.144 399.19C395.063 399.19 393.377 400.824 393.377 402.84C393.377 404.856 395.063 406.49 397.144 406.49Z" fill="#2B9A9F"/>
<path opacity="0.3" d="M401.923 337.77H392.377V344.47H401.923V337.77Z" fill="black"/>
<path d="M434.884 276.32H403.779C401.334 276.322 398.978 277.208 397.17 278.803C395.363 280.399 394.235 282.591 394.006 284.95L391.385 312.18C391.094 315.181 389.698 317.98 387.453 320.066C385.208 322.152 382.262 323.385 379.156 323.54L349.135 325C347.378 325.087 345.723 325.825 344.511 327.06C343.299 328.296 342.623 329.935 342.623 331.64V332.25C342.623 333.711 343.222 335.113 344.289 336.146C345.355 337.179 346.801 337.76 348.309 337.76H439.734L444.657 286.76C444.789 285.439 444.635 284.106 444.204 282.846C443.773 281.586 443.075 280.427 442.155 279.444C441.235 278.461 440.113 277.675 438.86 277.137C437.608 276.599 436.254 276.321 434.884 276.32Z" fill="#2B9A9F"/>
<path opacity="0.3" d="M434.884 276.32H403.779C401.334 276.322 398.978 277.208 397.17 278.803C395.363 280.399 394.235 282.591 394.006 284.95L391.385 312.18C391.094 315.181 389.698 317.98 387.453 320.066C385.208 322.152 382.262 323.385 379.156 323.54L349.135 325C347.378 325.087 345.723 325.825 344.511 327.06C343.299 328.296 342.623 329.935 342.623 331.64V332.25C342.623 333.711 343.222 335.113 344.289 336.146C345.355 337.179 346.801 337.76 348.309 337.76H439.734L444.657 286.76C444.789 285.439 444.635 284.106 444.204 282.846C443.773 281.586 443.075 280.427 442.155 279.444C441.235 278.461 440.113 277.675 438.86 277.137C437.608 276.599 436.254 276.321 434.884 276.32Z" fill="white"/>
<path d="M363.49 307H367.773V328.71C367.773 329.24 367.556 329.749 367.168 330.124C366.781 330.499 366.256 330.71 365.709 330.71H365.554C365.007 330.71 364.482 330.499 364.095 330.124C363.708 329.749 363.49 329.24 363.49 328.71V307Z" fill="#263238"/>
<path opacity="0.2" d="M363.49 307H367.773V328.71C367.773 329.24 367.556 329.749 367.168 330.124C366.781 330.499 366.256 330.71 365.709 330.71H365.554C365.007 330.71 364.482 330.499 364.095 330.124C363.708 329.749 363.49 329.24 363.49 328.71V307Z" fill="white"/>
<path d="M384.141 300.77H374.615V308.42H384.161C384.697 308.447 385.232 308.367 385.735 308.187C386.237 308.007 386.697 307.729 387.086 307.371C387.474 307.014 387.784 306.583 387.995 306.106C388.207 305.628 388.316 305.114 388.316 304.595C388.316 304.076 388.207 303.562 387.995 303.084C387.784 302.607 387.474 302.176 387.086 301.818C386.697 301.461 386.237 301.183 385.735 301.003C385.232 300.823 384.697 300.743 384.161 300.77H384.141Z" fill="#2B9A9F"/>
<path opacity="0.5" d="M384.141 300.77H374.615V308.42H384.161C384.697 308.447 385.232 308.367 385.735 308.187C386.237 308.007 386.697 307.729 387.086 307.371C387.474 307.014 387.784 306.583 387.995 306.106C388.207 305.628 388.316 305.114 388.316 304.595C388.316 304.076 388.207 303.562 387.995 303.084C387.784 302.607 387.474 302.176 387.086 301.818C386.697 301.461 386.237 301.183 385.735 301.003C385.232 300.823 384.697 300.743 384.161 300.77H384.141Z" fill="white"/>
<path d="M380.333 300.77H346.968C344.865 300.77 343.16 302.422 343.16 304.46V304.74C343.16 306.778 344.865 308.43 346.968 308.43H380.333C382.436 308.43 384.141 306.778 384.141 304.74V304.46C384.141 302.422 382.436 300.77 380.333 300.77Z" fill="#2B9A9F"/>
<path opacity="0.3" d="M380.333 300.77H346.968C344.865 300.77 343.16 302.422 343.16 304.46V304.74C343.16 306.778 344.865 308.43 346.968 308.43H380.333C382.436 308.43 384.141 306.778 384.141 304.74V304.46C384.141 302.422 382.436 300.77 380.333 300.77Z" fill="white"/>
<path d="M441.882 337.77H396.154L401.252 285C401.481 282.641 402.609 280.449 404.416 278.854C406.224 277.258 408.58 276.372 411.025 276.37H442.13C443.496 276.371 444.847 276.649 446.096 277.184C447.345 277.72 448.465 278.502 449.385 279.48C450.304 280.459 451.003 281.613 451.437 282.868C451.87 284.123 452.029 285.452 451.903 286.77L447.455 332.91C447.31 334.244 446.66 335.479 445.631 336.376C444.602 337.273 443.267 337.77 441.882 337.77Z" fill="#2B9A9F"/>
<path opacity="0.5" d="M441.882 337.77H396.154L401.252 285C401.481 282.641 402.609 280.449 404.416 278.854C406.224 277.258 408.58 276.372 411.025 276.37H442.13C443.496 276.371 444.847 276.649 446.096 277.184C447.345 277.72 448.465 278.502 449.385 279.48C450.304 280.459 451.003 281.613 451.437 282.868C451.87 284.123 452.029 285.452 451.903 286.77L447.455 332.91C447.31 334.244 446.66 335.479 445.631 336.376C444.602 337.273 443.267 337.77 441.882 337.77Z" fill="white"/>
<path d="M335.059 406.08H290.59C289.702 406.081 288.824 405.913 288.004 405.585C287.184 405.257 286.438 404.775 285.811 404.168C285.183 403.561 284.685 402.839 284.345 402.045C284.005 401.251 283.83 400.4 283.83 399.54V300.46C283.83 299.6 284.005 298.749 284.345 297.955C284.685 297.161 285.183 296.439 285.811 295.832C286.438 295.225 287.184 294.743 288.004 294.415C288.824 294.087 289.702 293.919 290.59 293.92H335.059C335.538 293.92 335.997 294.104 336.336 294.433C336.674 294.761 336.865 295.206 336.865 295.67C336.865 296.134 336.674 296.579 336.336 296.907C335.997 297.236 335.538 297.42 335.059 297.42H290.59C290.179 297.413 289.771 297.486 289.389 297.634C289.007 297.782 288.66 298.002 288.367 298.281C288.074 298.56 287.841 298.893 287.683 299.26C287.524 299.628 287.442 300.022 287.442 300.42V399.5C287.442 399.898 287.524 400.292 287.683 400.66C287.841 401.027 288.074 401.36 288.367 401.639C288.66 401.918 289.007 402.138 289.389 402.286C289.771 402.434 290.179 402.507 290.59 402.5H335.059C335.538 402.5 335.997 402.684 336.336 403.013C336.674 403.341 336.865 403.786 336.865 404.25C336.876 404.486 336.837 404.723 336.752 404.944C336.666 405.166 336.535 405.368 336.366 405.539C336.197 405.711 335.994 405.847 335.769 405.94C335.545 406.032 335.303 406.08 335.059 406.08Z" fill="#263238"/>
<g opacity="0.5">
<path d="M335.059 406.08H290.59C289.702 406.081 288.824 405.913 288.004 405.585C287.184 405.257 286.438 404.775 285.811 404.168C285.183 403.561 284.685 402.839 284.345 402.045C284.005 401.251 283.83 400.4 283.83 399.54V300.46C283.83 299.6 284.005 298.749 284.345 297.955C284.685 297.161 285.183 296.439 285.811 295.832C286.438 295.225 287.184 294.743 288.004 294.415C288.824 294.087 289.702 293.919 290.59 293.92H335.059C335.538 293.92 335.997 294.104 336.336 294.433C336.674 294.761 336.865 295.206 336.865 295.67C336.865 296.134 336.674 296.579 336.336 296.907C335.997 297.236 335.538 297.42 335.059 297.42H290.59C290.179 297.413 289.771 297.486 289.389 297.634C289.007 297.782 288.66 298.002 288.367 298.281C288.074 298.56 287.841 298.893 287.683 299.26C287.524 299.628 287.442 300.022 287.442 300.42V399.5C287.442 399.898 287.524 400.292 287.683 400.66C287.841 401.027 288.074 401.36 288.367 401.639C288.66 401.918 289.007 402.138 289.389 402.286C289.771 402.434 290.179 402.507 290.59 402.5H335.059C335.538 402.5 335.997 402.684 336.336 403.013C336.674 403.341 336.865 403.786 336.865 404.25C336.876 404.486 336.837 404.723 336.752 404.944C336.666 405.166 336.535 405.368 336.366 405.539C336.197 405.711 335.994 405.847 335.769 405.94C335.545 406.032 335.303 406.08 335.059 406.08Z" fill="white"/>
</g>
<path d="M305.668 241.79L302.572 239.79C302.493 239.741 302.428 239.674 302.383 239.594C302.338 239.515 302.314 239.426 302.314 239.335C302.314 239.244 302.338 239.155 302.383 239.076C302.428 238.996 302.493 238.929 302.572 238.88L305.668 236.88C305.781 236.808 305.92 236.782 306.053 236.808C306.187 236.834 306.304 236.91 306.38 237.02C306.451 237.129 306.476 237.261 306.449 237.388C306.422 237.515 306.345 237.627 306.235 237.7L303.666 239.35L306.235 241C306.345 241.073 306.422 241.185 306.449 241.312C306.476 241.439 306.451 241.571 306.38 241.68C306.298 241.783 306.178 241.851 306.046 241.872C305.914 241.892 305.778 241.863 305.668 241.79Z" fill="white"/>
<path d="M312.521 241.65C312.459 241.54 312.443 241.412 312.475 241.291C312.508 241.17 312.587 241.066 312.696 241L315.266 239.35L312.696 237.67C312.585 237.597 312.509 237.484 312.484 237.357C312.459 237.229 312.487 237.097 312.562 236.99C312.599 236.936 312.646 236.89 312.701 236.853C312.756 236.817 312.818 236.792 312.883 236.779C312.948 236.766 313.015 236.765 313.081 236.778C313.146 236.79 313.208 236.814 313.264 236.85L316.36 238.85C316.439 238.899 316.504 238.966 316.548 239.046C316.593 239.125 316.617 239.214 316.617 239.305C316.617 239.396 316.593 239.485 316.548 239.564C316.504 239.644 316.439 239.711 316.36 239.76L313.264 241.76C313.208 241.802 313.145 241.833 313.077 241.85C313.008 241.867 312.937 241.871 312.868 241.861C312.798 241.85 312.731 241.826 312.672 241.79C312.612 241.754 312.561 241.706 312.521 241.65Z" fill="white"/>
<path d="M308.279 243C308.215 242.981 308.156 242.949 308.104 242.908C308.053 242.866 308.011 242.815 307.98 242.757C307.949 242.699 307.931 242.636 307.925 242.571C307.92 242.507 307.928 242.442 307.949 242.38L310.085 235.84C310.104 235.778 310.135 235.721 310.177 235.671C310.219 235.622 310.271 235.581 310.33 235.551C310.389 235.521 310.453 235.503 310.519 235.498C310.585 235.492 310.652 235.5 310.715 235.52C310.778 235.538 310.837 235.569 310.889 235.609C310.94 235.65 310.982 235.7 311.013 235.757C311.044 235.814 311.062 235.876 311.068 235.94C311.073 236.005 311.066 236.069 311.045 236.13L308.919 242.68C308.899 242.742 308.867 242.799 308.823 242.849C308.78 242.899 308.728 242.94 308.668 242.97C308.609 242.999 308.543 243.017 308.477 243.023C308.41 243.028 308.343 243.02 308.279 243Z" fill="white"/>
<path d="M325.802 248H302.819C302.749 248 302.68 247.986 302.616 247.96C302.551 247.934 302.493 247.896 302.444 247.847C302.395 247.799 302.356 247.741 302.33 247.678C302.304 247.615 302.292 247.548 302.293 247.48C302.292 247.412 302.304 247.345 302.33 247.282C302.356 247.219 302.395 247.161 302.444 247.113C302.493 247.064 302.551 247.026 302.616 247C302.68 246.973 302.749 246.96 302.819 246.96H325.802C325.944 246.96 326.081 247.015 326.181 247.112C326.282 247.21 326.339 247.342 326.339 247.48C326.339 247.548 326.325 247.616 326.298 247.679C326.271 247.742 326.231 247.799 326.181 247.848C326.132 247.896 326.072 247.934 326.007 247.96C325.942 247.987 325.873 248 325.802 248Z" fill="white"/>
<path d="M352.201 248H329.209C329.138 248 329.068 247.987 329.003 247.96C328.938 247.934 328.879 247.896 328.829 247.848C328.779 247.799 328.74 247.742 328.713 247.679C328.686 247.616 328.672 247.548 328.672 247.48C328.682 247.349 328.743 247.227 328.843 247.138C328.942 247.049 329.073 247 329.209 247H352.181C352.323 247 352.46 247.055 352.56 247.152C352.661 247.25 352.717 247.382 352.717 247.52C352.707 247.647 352.649 247.767 352.554 247.855C352.459 247.944 352.333 247.995 352.201 248Z" fill="white"/>
<path d="M315.957 252.58H302.819C302.749 252.58 302.68 252.566 302.616 252.54C302.551 252.514 302.493 252.476 302.444 252.427C302.395 252.379 302.356 252.321 302.33 252.258C302.304 252.195 302.292 252.128 302.293 252.06C302.293 251.925 302.348 251.795 302.447 251.699C302.546 251.604 302.68 251.55 302.819 251.55H315.957C316.097 251.55 316.232 251.603 316.333 251.699C316.433 251.794 316.491 251.924 316.493 252.06C316.493 252.198 316.437 252.33 316.336 252.428C316.236 252.525 316.099 252.58 315.957 252.58Z" fill="white"/>
<path d="M340.889 252.58H319.372C319.302 252.58 319.233 252.566 319.168 252.54C319.104 252.514 319.045 252.476 318.996 252.427C318.947 252.379 318.909 252.321 318.883 252.258C318.857 252.195 318.844 252.128 318.846 252.06C318.846 251.925 318.901 251.795 319 251.699C319.099 251.604 319.233 251.55 319.372 251.55H340.889C341.029 251.55 341.163 251.604 341.262 251.699C341.36 251.795 341.416 251.925 341.416 252.06C341.417 252.128 341.404 252.195 341.379 252.258C341.353 252.321 341.314 252.379 341.265 252.427C341.216 252.476 341.158 252.514 341.093 252.54C341.029 252.566 340.959 252.58 340.889 252.58Z" fill="white"/>
<path d="M337.825 257.17H302.819C302.679 257.167 302.545 257.111 302.447 257.014C302.348 256.917 302.293 256.786 302.293 256.65C302.292 256.582 302.304 256.515 302.33 256.452C302.356 256.389 302.395 256.331 302.444 256.283C302.493 256.234 302.551 256.196 302.616 256.17C302.68 256.144 302.749 256.13 302.819 256.13H337.825C337.967 256.13 338.104 256.185 338.204 256.282C338.305 256.38 338.361 256.512 338.361 256.65C338.361 256.788 338.305 256.92 338.204 257.018C338.104 257.115 337.967 257.17 337.825 257.17Z" fill="white"/>
<path d="M348.558 257.17H341.252C341.109 257.17 340.973 257.115 340.872 257.018C340.771 256.92 340.715 256.788 340.715 256.65C340.715 256.512 340.771 256.38 340.872 256.282C340.973 256.185 341.109 256.13 341.252 256.13H348.558C348.7 256.13 348.837 256.185 348.938 256.282C349.038 256.38 349.095 256.512 349.095 256.65C349.095 256.788 349.038 256.92 348.938 257.018C348.837 257.115 348.7 257.17 348.558 257.17Z" fill="white"/>
<path d="M319.166 261.75H302.819C302.749 261.75 302.68 261.736 302.616 261.71C302.551 261.684 302.493 261.645 302.444 261.597C302.395 261.549 302.356 261.491 302.33 261.428C302.304 261.365 302.292 261.298 302.293 261.23C302.292 261.162 302.304 261.095 302.33 261.032C302.356 260.969 302.395 260.911 302.444 260.863C302.493 260.814 302.551 260.776 302.616 260.75C302.68 260.723 302.749 260.71 302.819 260.71H319.166C319.309 260.71 319.445 260.765 319.546 260.862C319.646 260.96 319.703 261.092 319.703 261.23C319.703 261.368 319.646 261.5 319.546 261.598C319.445 261.695 319.309 261.75 319.166 261.75Z" fill="white"/>
<path d="M342.934 261.75H322.593C322.451 261.75 322.314 261.695 322.214 261.598C322.113 261.5 322.057 261.368 322.057 261.23C322.057 261.092 322.113 260.96 322.214 260.862C322.314 260.765 322.451 260.71 322.593 260.71H342.934C343.076 260.71 343.213 260.765 343.313 260.862C343.414 260.96 343.471 261.092 343.471 261.23C343.471 261.368 343.414 261.5 343.313 261.598C343.213 261.695 343.076 261.75 342.934 261.75Z" fill="white"/>
<path d="M325.802 266.33H302.819C302.749 266.33 302.68 266.316 302.616 266.29C302.551 266.264 302.493 266.225 302.444 266.177C302.395 266.129 302.356 266.071 302.33 266.008C302.304 265.945 302.292 265.878 302.293 265.81C302.293 265.675 302.348 265.545 302.447 265.449C302.546 265.354 302.68 265.3 302.819 265.3H325.802C325.872 265.299 325.942 265.311 326.007 265.336C326.072 265.361 326.131 265.398 326.181 265.446C326.231 265.493 326.271 265.55 326.298 265.612C326.325 265.675 326.339 265.742 326.339 265.81C326.339 265.948 326.282 266.08 326.181 266.178C326.081 266.275 325.944 266.33 325.802 266.33Z" fill="white"/>
<path d="M345.442 266.33H329.209C329.066 266.33 328.93 266.275 328.829 266.178C328.728 266.08 328.672 265.948 328.672 265.81C328.672 265.742 328.686 265.675 328.713 265.612C328.74 265.55 328.78 265.493 328.83 265.446C328.88 265.398 328.939 265.361 329.004 265.336C329.069 265.311 329.139 265.299 329.209 265.3H345.421C345.561 265.3 345.695 265.354 345.793 265.449C345.892 265.545 345.948 265.675 345.948 265.81C345.95 265.944 345.899 266.073 345.804 266.17C345.71 266.267 345.58 266.325 345.442 266.33Z" fill="white"/>
<path d="M145.996 176.82C146.419 181.53 145.367 190.06 141.703 192.82C147.678 194.91 154.015 198.51 158.06 203.26C162.075 197.6 157.513 194.37 157.513 194.37C152.353 192.59 152.9 188.8 154.232 185.31L145.996 176.82Z" fill="#B97964"/>
<path d="M165.532 172.76C165.47 173.35 165.759 173.86 166.161 173.9C166.564 173.94 166.925 173.48 166.987 172.9C167.049 172.32 166.76 171.8 166.357 171.76C165.955 171.72 165.604 172.17 165.532 172.76Z" fill="#263238"/>
<path d="M166.203 171.77L167.7 171.49C167.7 171.49 166.843 172.56 166.203 171.77Z" fill="#263238"/>
<path d="M165.738 173.39C166.16 174.797 166.774 176.142 167.565 177.39C167.231 177.578 166.858 177.693 166.473 177.727C166.088 177.762 165.7 177.715 165.336 177.59L165.738 173.39Z" fill="#A24E3F"/>
<path d="M167.266 169.65C167.362 169.635 167.449 169.589 167.514 169.52C167.578 169.453 167.613 169.366 167.613 169.275C167.613 169.184 167.578 169.097 167.514 169.03C167.09 168.655 166.579 168.383 166.024 168.239C165.469 168.094 164.886 168.081 164.325 168.2C164.246 168.253 164.19 168.333 164.169 168.423C164.148 168.514 164.163 168.609 164.212 168.69C164.243 168.741 164.289 168.783 164.343 168.812C164.398 168.84 164.459 168.853 164.521 168.85C164.967 168.767 165.427 168.787 165.864 168.906C166.302 169.026 166.704 169.243 167.039 169.54C167.099 169.601 167.18 169.64 167.266 169.65Z" fill="#263238"/>
<path d="M145.512 169C145.275 176.31 145.017 179.42 148.381 183.5C153.448 189.63 162.623 188.29 165.079 181.17C167.287 174.76 167.308 163.84 160.362 160.3C153.417 156.76 145.729 161.67 145.512 169Z" fill="#B97964"/>
<path d="M145.843 182.81C138.423 181.58 140.549 177.05 140.549 177.05C133.242 175.62 138.887 172.16 138.887 172.16C132.809 169.62 138.887 167.34 138.887 167.34C133.025 162.63 141.385 161 141.385 161C139.321 153.65 146.545 156.67 146.545 156.67C150.466 150.35 153.851 156.38 153.851 156.38C160.724 147.38 162.396 154.97 162.396 154.97C169.424 153.18 166.73 160.34 166.73 160.34C172.51 161.84 167.969 164.68 167.969 164.68C170.198 167.41 162.138 167.88 162.138 167.88C162.138 167.88 165.977 173.88 162.138 175.53L152.375 182.78C152.375 182.78 147.866 181 145.843 182.81Z" fill="#263238"/>
<path d="M153.139 176.91C153.139 176.91 158.299 164.91 154.264 154.67L157.669 153.54C157.669 153.54 162.117 168.43 153.139 176.91Z" fill="#2B9A9F"/>
<path d="M158.289 175.59C159.135 177.31 159.465 178.06 160.683 178.59C161.059 178.799 161.49 178.896 161.923 178.87C162.356 178.843 162.771 178.693 163.116 178.439C163.462 178.186 163.722 177.839 163.866 177.442C164.01 177.046 164.029 176.617 163.923 176.21C163.603 174.49 162.241 171.96 160.353 171.91C159.911 171.912 159.478 172.029 159.099 172.249C158.72 172.468 158.409 172.783 158.198 173.159C157.987 173.535 157.884 173.959 157.9 174.386C157.916 174.814 158.05 175.23 158.289 175.59Z" fill="#B97964"/>
<path d="M152.953 200.57C152.953 200.57 159.94 205.57 162.778 207.57L182.994 198.33C182.966 197.244 183.276 196.175 183.883 195.261C184.49 194.348 185.367 193.633 186.4 193.21L187.845 192.63L190.889 191.31C191.457 191.065 192.081 190.969 192.699 191.032C193.317 191.095 193.906 191.315 194.408 191.67C194.998 192.086 195.44 192.669 195.675 193.339C195.91 194.008 195.925 194.732 195.719 195.41C195.295 196.816 194.501 198.092 193.416 199.112C192.33 200.132 190.99 200.862 189.527 201.23L186.576 201.98C186.576 201.98 169.248 214.7 163.056 215C156.864 215.3 147.793 209.41 147.793 209.41L152.953 200.57Z" fill="#B97964"/>
<path d="M136.151 192.14C141.486 192.14 147.451 195.36 156.791 201.26C155.449 205.513 152.954 209.34 149.567 212.34C149.567 212.34 144.407 211 137.554 204.75C129.298 197.18 132.879 192.15 136.151 192.14Z" fill="#263238"/>
<path d="M237.494 207.12H186.926C186.501 207.127 186.079 207.046 185.688 206.882C185.298 206.719 184.947 206.477 184.66 206.173C184.373 205.868 184.157 205.508 184.024 205.116C183.892 204.724 183.847 204.31 183.892 203.9L187.7 161.72C187.791 160.848 188.209 160.038 188.875 159.445C189.54 158.851 190.408 158.515 191.312 158.5H241.88C242.305 158.493 242.727 158.574 243.117 158.738C243.507 158.901 243.857 159.143 244.143 159.448C244.429 159.753 244.645 160.113 244.776 160.505C244.907 160.896 244.951 161.311 244.904 161.72L241.096 203.9C241.005 204.77 240.589 205.579 239.925 206.172C239.262 206.765 238.397 207.102 237.494 207.12Z" fill="#2B9A9F"/>
<path opacity="0.4" d="M237.494 207.12H186.926C186.501 207.127 186.079 207.046 185.688 206.882C185.298 206.719 184.947 206.477 184.66 206.173C184.373 205.868 184.157 205.508 184.024 205.116C183.892 204.724 183.847 204.31 183.892 203.9L187.7 161.72C187.791 160.848 188.209 160.038 188.875 159.445C189.54 158.851 190.408 158.515 191.312 158.5H241.88C242.305 158.493 242.727 158.574 243.117 158.738C243.507 158.901 243.857 159.143 244.143 159.448C244.429 159.753 244.645 160.113 244.776 160.505C244.907 160.896 244.951 161.311 244.904 161.72L241.096 203.9C241.005 204.77 240.589 205.579 239.925 206.172C239.262 206.765 238.397 207.102 237.494 207.12Z" fill="white"/>
<path opacity="0.7" d="M237.679 205.12C238.021 205.114 238.349 204.987 238.6 204.762C238.852 204.537 239.009 204.23 239.042 203.9L242.85 161.72C242.867 161.565 242.851 161.408 242.801 161.26C242.751 161.111 242.669 160.975 242.561 160.86C242.453 160.744 242.32 160.653 242.172 160.591C242.025 160.529 241.865 160.498 241.704 160.5H191.136C190.793 160.506 190.464 160.633 190.211 160.858C189.958 161.082 189.799 161.389 189.764 161.72L185.966 203.9C185.948 204.055 185.965 204.212 186.015 204.36C186.064 204.509 186.146 204.645 186.255 204.76C186.363 204.876 186.495 204.968 186.643 205.03C186.791 205.092 186.95 205.122 187.111 205.12H237.679Z" fill="white"/>
<path d="M202.54 180.32L186.028 203.48V203.9C186.011 204.055 186.027 204.212 186.077 204.36C186.127 204.509 186.209 204.645 186.317 204.76C186.425 204.876 186.558 204.968 186.705 205.03C186.853 205.092 187.013 205.122 187.174 205.12H215.822L202.54 180.32Z" fill="#2B9A9F"/>
<path opacity="0.3" d="M202.54 180.32L186.028 203.48V203.9C186.011 204.055 186.027 204.212 186.077 204.36C186.127 204.509 186.209 204.645 186.317 204.76C186.425 204.876 186.558 204.968 186.705 205.03C186.853 205.092 187.013 205.122 187.174 205.12H215.822L202.54 180.32Z" fill="white"/>
<path d="M239.186 202.29L225.347 176.82L204.852 205.12H237.679C238.022 205.114 238.349 204.987 238.601 204.762C238.852 204.537 239.009 204.23 239.042 203.9L239.186 202.29Z" fill="#2B9A9F"/>
<path d="M220.002 172.32C219.876 173.539 219.292 174.67 218.362 175.5C217.432 176.329 216.22 176.799 214.956 176.82C214.361 176.831 213.77 176.718 213.224 176.49C212.677 176.262 212.187 175.924 211.786 175.499C211.384 175.073 211.081 174.569 210.897 174.021C210.712 173.473 210.65 172.893 210.714 172.32C210.838 171.099 211.421 169.965 212.351 169.134C213.282 168.302 214.495 167.831 215.761 167.81C216.357 167.799 216.948 167.912 217.495 168.14C218.043 168.369 218.534 168.708 218.935 169.135C219.337 169.561 219.639 170.066 219.823 170.616C220.007 171.165 220.068 171.746 220.002 172.32Z" fill="#2B9A9F"/>
<path opacity="0.4" d="M220.002 172.32C219.876 173.539 219.292 174.67 218.362 175.5C217.432 176.329 216.22 176.799 214.956 176.82C214.361 176.831 213.77 176.718 213.224 176.49C212.677 176.262 212.187 175.924 211.786 175.499C211.384 175.073 211.081 174.569 210.897 174.021C210.712 173.473 210.65 172.893 210.714 172.32C210.838 171.099 211.421 169.965 212.351 169.134C213.282 168.302 214.495 167.831 215.761 167.81C216.357 167.799 216.948 167.912 217.495 168.14C218.043 168.369 218.534 168.708 218.935 169.135C219.337 169.561 219.639 170.066 219.823 170.616C220.007 171.165 220.068 171.746 220.002 172.32Z" fill="white"/>
<path d="M93.8093 377.37L88.6699 392.13L96.5441 395.25L102.705 381.63L93.8093 377.37Z" fill="#B97964"/>
<path d="M99.3705 394.88C99.3301 394.856 99.2972 394.822 99.2754 394.782C99.2535 394.741 99.2436 394.696 99.2466 394.65C99.2524 394.606 99.2725 394.565 99.3041 394.532C99.3356 394.5 99.3769 394.478 99.4221 394.47C99.5872 394.47 103.302 393.63 104.685 394.47C104.947 394.625 105.136 394.872 105.212 395.16C105.269 395.32 105.275 395.493 105.227 395.656C105.179 395.819 105.08 395.964 104.943 396.07C104.417 396.43 103.189 396.28 102.064 395.94C101.137 395.662 100.235 395.307 99.3705 394.88ZM100.155 394.81C101.775 395.51 104.066 396.18 104.665 395.74C104.747 395.68 104.85 395.58 104.768 395.27C104.752 395.179 104.713 395.094 104.656 395.021C104.598 394.948 104.524 394.889 104.438 394.85C104.316 394.776 104.184 394.718 104.045 394.68C102.752 394.484 101.431 394.528 100.155 394.81Z" fill="#2B9A9F"/>
<path d="M99.257 394.83C99.2371 394.797 99.2266 394.759 99.2266 394.72C99.2266 394.681 99.2371 394.643 99.257 394.61C99.257 394.51 100.289 392.21 101.744 391.61C101.952 391.526 102.174 391.483 102.399 391.483C102.624 391.483 102.847 391.526 103.055 391.61C103.622 391.84 103.715 392.19 103.664 392.43C103.54 393.48 100.753 394.73 99.5356 394.87C99.5212 394.877 99.5053 394.881 99.4892 394.881C99.473 394.881 99.4571 394.877 99.4427 394.87C99.4108 394.879 99.377 394.88 99.3445 394.873C99.312 394.866 99.2819 394.851 99.257 394.83ZM102.755 392C102.489 391.905 102.196 391.905 101.93 392C101.011 392.553 100.29 393.366 99.8659 394.33C101.197 394.02 103.096 392.96 103.23 392.33C103.23 392.27 103.23 392.11 102.879 391.97H102.755V392Z" fill="#2B9A9F"/>
<path d="M98.8344 393.37L88.9479 390.37C88.7668 390.316 88.5722 390.323 88.396 390.391C88.2198 390.458 88.0723 390.581 87.9778 390.74L83.7053 398C83.6129 398.153 83.5527 398.322 83.5282 398.497C83.5036 398.673 83.5152 398.851 83.5622 399.022C83.6092 399.193 83.6908 399.354 83.8021 399.494C83.9135 399.634 84.0524 399.752 84.211 399.84C84.2953 399.89 84.3853 399.93 84.4793 399.96C88.0603 400.96 91.2905 401.72 95.7281 403.06C100.971 404.62 99.4433 404.83 105.573 406.76C109.268 407.92 111.249 404.03 109.701 403.36C102.777 400.36 102.704 398 100.723 394.67C100.275 394.031 99.6045 393.57 98.8344 393.37Z" fill="#263238"/>
<path opacity="0.2" d="M91.3418 384.45L99.5978 388.49L102.704 381.63L93.8083 377.37L91.3418 384.45Z" fill="#263238"/>
<path d="M128.711 240.85C128.711 240.85 117.617 249.06 119.99 274.78C120.217 277.16 121.022 279.65 121.022 282.37C121.022 284.18 120.506 285.45 119.898 289.52C119.01 295.44 117.379 317.52 115.656 320.39C113.933 323.26 113.231 322.75 108.432 330.67C103.272 339.19 96.564 354.13 91.373 379.45C94.8391 381.821 98.7981 383.428 102.973 384.16C102.973 384.16 131.322 340.84 137.349 324.71C142.746 310.28 149.175 264.23 149.175 264.23L149.691 244.23L128.711 240.85Z" fill="#2B9A9F"/>
<path opacity="0.1" d="M140.848 274.78H132.819C132.819 274.78 130.177 299.26 138.908 319.68C139.816 316.4 140.734 312.47 141.632 308.22L145.11 286.66C144.615 283.02 144.233 280.24 144.171 280.06C143.995 279.49 140.848 274.78 140.848 274.78Z" fill="black"/>
<path d="M139.525 383.31L139.577 399L148.71 398.41L150.114 383.31H139.525Z" fill="#B97964"/>
<path d="M149.764 398.14C149.718 398.134 149.676 398.115 149.642 398.084C149.609 398.054 149.586 398.014 149.578 397.97C149.567 397.926 149.572 397.88 149.59 397.838C149.609 397.797 149.641 397.762 149.681 397.74C149.826 397.66 153.056 395.74 154.655 396.08C154.954 396.144 155.215 396.316 155.388 396.56C155.495 396.695 155.557 396.858 155.566 397.027C155.575 397.197 155.531 397.365 155.44 397.51C154.646 398.087 153.664 398.367 152.674 398.3C151.701 398.332 150.727 398.278 149.764 398.14ZM150.486 397.83C152.251 397.98 154.614 397.88 155.058 397.27C155.12 397.19 155.171 397.06 154.996 396.79C154.948 396.711 154.882 396.644 154.804 396.594C154.725 396.544 154.635 396.512 154.542 396.5C154.402 396.48 154.259 396.48 154.119 396.5C152.83 396.709 151.596 397.161 150.486 397.83Z" fill="#2B9A9F"/>
<path d="M149.639 398.14C149.604 398.118 149.576 398.089 149.556 398.054C149.536 398.019 149.526 397.98 149.525 397.94C149.525 397.83 149.701 395.34 150.867 394.34C151.033 394.192 151.229 394.079 151.442 394.007C151.654 393.934 151.88 393.905 152.105 393.92C152.725 393.92 152.931 394.26 152.962 394.51C153.199 395.51 151.001 397.6 149.866 398.13C149.836 398.14 149.803 398.14 149.773 398.13C149.731 398.149 149.683 398.152 149.639 398.14ZM151.971 394.34C151.687 394.346 151.415 394.453 151.208 394.64C150.527 395.455 150.123 396.454 150.052 397.5C151.197 396.79 152.632 395.18 152.549 394.56C152.549 394.5 152.498 394.34 152.095 394.32H151.971V394.34Z" fill="#2B9A9F"/>
<path d="M148.753 396.89L138.433 397.25C138.244 397.258 138.064 397.328 137.922 397.448C137.78 397.567 137.683 397.73 137.649 397.91L136.08 406.13C136.01 406.479 136.086 406.84 136.291 407.134C136.497 407.429 136.814 407.632 137.174 407.7C137.273 407.71 137.374 407.71 137.473 407.7C141.199 407.5 144.501 407.19 149.145 407.04C154.625 406.85 153.273 407.53 159.702 407.4C163.593 407.31 164.14 403.01 162.489 402.86C154.924 402.2 154.057 400.02 151.054 397.51C150.393 397.034 149.573 396.813 148.753 396.89Z" fill="#263238"/>
<path opacity="0.2" d="M139.556 391.43L149.381 391.23L150.114 383.31H139.525L139.556 391.43Z" fill="#263238"/>
<path d="M134.892 238C134.892 238 123.819 252.21 132.023 280L141.311 320.59C141.311 320.59 132.498 339.05 137.183 387.75C141.724 388.368 146.339 388.267 150.847 387.45C150.847 387.45 161.167 336.02 162.725 318.65C164.448 299.51 163.416 241.82 163.416 241.82L134.892 238Z" fill="#2B9A9F"/>
<path d="M141.579 191.94C141.579 191.94 139.866 184.84 150.867 187.94C161.868 191.04 160.939 197.11 160.939 197.11L141.579 191.94Z" fill="#263238"/>
<path opacity="0.4" d="M141.579 191.94C141.579 191.94 139.866 184.84 150.867 187.94C161.868 191.04 160.939 197.11 160.939 197.11L141.579 191.94Z" fill="black"/>
<path d="M168.866 209.7C168.866 212.19 167.834 215.79 166.802 219.82C166.327 221.73 165.893 223.72 165.604 225.74C164.046 236.74 163.54 248.33 163.54 248.33C157.467 249.614 151.187 249.671 145.089 248.5C138.992 247.328 133.21 244.952 128.102 241.52C128.102 241.52 132.426 237.97 131.538 213.38C131.136 202.3 127.008 189.13 145.904 191.2C161.858 192.95 167.225 197.75 168.515 205.26C168.515 205.35 168.515 205.45 168.515 205.55L168.608 206.25C168.764 207.394 168.85 208.546 168.866 209.7Z" fill="#263238"/>
<path opacity="0.4" d="M168.866 209.7C168.866 212.19 167.834 215.79 166.802 219.82C162.488 214.82 158.164 205.37 158.164 205.37L161.724 200.29L167.999 203.12C168.216 203.822 168.388 204.537 168.515 205.26C168.515 205.35 168.515 205.45 168.515 205.55L168.608 206.25C168.764 207.394 168.85 208.546 168.866 209.7Z" fill="black"/>
<path d="M175.44 205.36C175.44 205.36 181.632 211.28 184.078 213.66L205.482 207.44C205.622 206.368 206.09 205.361 206.826 204.548C207.562 203.735 208.531 203.155 209.61 202.88L211.117 202.5L214.337 201.64C214.936 201.483 215.568 201.48 216.169 201.633C216.77 201.786 217.32 202.088 217.763 202.51C218.282 203.005 218.63 203.644 218.759 204.339C218.888 205.034 218.793 205.75 218.485 206.39C217.848 207.719 216.867 208.866 215.637 209.719C214.408 210.573 212.971 211.103 211.468 211.26L208.434 211.57C208.434 211.57 189.331 221.68 183.18 221.12C177.03 220.56 168.949 213.39 168.949 213.39L175.44 205.36Z" fill="#B97964"/>
<path d="M160.063 194.59C165.347 195.34 170.745 199.41 179.125 206.59C177.139 210.606 174.078 214.032 170.26 216.51C170.26 216.51 165.378 214.44 159.558 207.27C152.52 198.59 156.864 194.13 160.063 194.59Z" fill="#263238"/>
</svg>
