<svg width="32" height="32" viewBox="0 0 32 32" fill="none" xmlns="http://www.w3.org/2000/svg">
<path d="M26.6673 21.6613C26.6673 21.2674 26.5897 20.8774 26.4389 20.5135C26.2881 20.1496 26.0672 19.819 25.7886 19.5405C25.51 19.262 25.1792 19.0412 24.8153 18.8905C24.4513 18.7399 24.0612 18.6625 23.6673 18.6627H8.33398C7.93997 18.6625 7.54978 18.74 7.18573 18.8907C6.82167 19.0414 6.49088 19.2624 6.21227 19.541C5.93366 19.8196 5.71269 20.1504 5.56199 20.5144C5.41129 20.8785 5.33381 21.2687 5.33398 21.6627V22.432C5.33398 23.6227 5.75932 24.7733 6.53132 25.6787C8.62065 28.124 11.802 29.332 15.9953 29.332C20.19 29.332 23.3727 28.1253 25.4647 25.68C26.2406 24.7742 26.6671 23.6208 26.6673 22.428V21.6613ZM8.33265 20.6627H23.6673C24.218 20.6627 24.6646 21.1093 24.6646 21.6627V22.4293C24.6649 23.1446 24.4095 23.8364 23.9447 24.38C22.2687 26.3373 19.646 27.3307 15.994 27.3307C12.3433 27.3307 9.72198 26.3373 8.05132 24.38C7.58753 23.8369 7.3327 23.1462 7.33265 22.432V21.6613C7.333 21.3966 7.43833 21.1428 7.62554 20.9556C7.81275 20.7684 8.06656 20.663 8.33132 20.6627H8.33265ZM22.6633 9.336C22.6635 7.93194 22.2204 6.56367 21.3971 5.42629C20.5739 4.2889 19.4125 3.44047 18.0787 3.00197C16.7449 2.56347 15.3067 2.55728 13.9691 2.9843C12.6316 3.41132 11.463 4.24974 10.63 5.38C10.5334 5.3494 10.4327 5.33367 10.3313 5.33334H7.00065C6.73543 5.33334 6.48108 5.43869 6.29354 5.62623C6.10601 5.81377 6.00065 6.06812 6.00065 6.33334V13.664C6.0003 14.1457 6.09488 14.6228 6.27899 15.068C6.4631 15.5132 6.73313 15.9177 7.07365 16.2585C7.41417 16.5992 7.81849 16.8695 8.26353 17.054C8.70856 17.2384 9.18558 17.3333 9.66732 17.3333H10.0007V17.328H10.014C10.2399 17.3284 10.4622 17.2712 10.6599 17.1619C10.8576 17.0526 11.0242 16.8948 11.144 16.7033C11.2639 16.5118 11.333 16.293 11.3449 16.0674C11.3568 15.8418 11.311 15.6169 11.212 15.4139C11.1129 15.2108 10.9638 15.0364 10.7787 14.9069C10.5936 14.7774 10.3785 14.6972 10.1539 14.6738C9.92917 14.6504 9.70223 14.6846 9.49441 14.7732C9.28659 14.8617 9.10474 15.0017 8.96598 15.18C8.67724 15.0461 8.43289 14.8322 8.26183 14.5638C8.09076 14.2954 8.00013 13.9836 8.00065 13.6653V13.3333H8.99798C9.50465 13.3333 9.97532 13.1707 10.358 12.896C11.1292 14.1186 12.2768 15.0575 13.6281 15.571C14.9793 16.0846 16.4608 16.1451 17.8494 15.7434C19.238 15.3417 20.4583 14.4995 21.3266 13.3438C22.1949 12.1881 22.664 10.7815 22.6633 9.336ZM9.32999 9.19467C9.32803 9.28888 9.32803 9.38313 9.32999 9.47734V10.9987C9.32999 11.0871 9.29487 11.1719 9.23235 11.2344C9.16984 11.2969 9.08506 11.332 8.99665 11.332H8.00065V7.33467H9.33132V9.19467H9.32999ZM11.33 9.45467V9.21734C11.3612 7.99034 11.8745 6.82503 12.7588 5.97384C13.6431 5.12265 14.8272 4.65411 16.0545 4.66971C17.2818 4.68532 18.4535 5.18382 19.3159 6.05722C20.1783 6.93062 20.6618 8.10861 20.6618 9.336C20.6618 10.5634 20.1783 11.7414 19.3159 12.6148C18.4535 13.4882 17.2818 13.9867 16.0545 14.0023C14.8272 14.0179 13.6431 13.5494 12.7588 12.6982C11.8745 11.847 11.3612 10.6817 11.33 9.45467Z" fill="#F8F8F8"/>
</svg>
