<svg width="32" height="32" viewBox="0 0 32 32" fill="none" xmlns="http://www.w3.org/2000/svg">
<path d="M15.986 2.66666C8.62602 2.66666 2.66602 8.63999 2.66602 16C2.66602 23.36 8.62602 29.3333 15.986 29.3333C23.3593 29.3333 29.3327 23.36 29.3327 16C29.3327 8.63999 23.3593 2.66666 15.986 2.66666ZM15.9993 26.6667C10.106 26.6667 5.33268 21.8933 5.33268 16C5.33268 10.1067 10.106 5.33332 15.9993 5.33332C21.8927 5.33332 26.666 10.1067 26.666 16C26.666 21.8933 21.8927 26.6667 15.9993 26.6667Z" fill="#F8F8F8"/>
<path d="M16.666 9.33334H14.666V17.3333L21.666 21.5333L22.666 19.8933L16.666 16.3333V9.33334Z" fill="#F8F8F8"/>
</svg>
