<svg width="32" height="32" viewBox="0 0 32 32" fill="none" xmlns="http://www.w3.org/2000/svg">
<path d="M22.6672 22.16C23.4919 22.16 24.1605 21.4914 24.1605 20.6667C24.1605 19.8419 23.4919 19.1733 22.6672 19.1733C21.8424 19.1733 21.1738 19.8419 21.1738 20.6667C21.1738 21.4914 21.8424 22.16 22.6672 22.16Z" fill="#F8F8F8"/>
<path fill-rule="evenodd" clip-rule="evenodd" d="M22.6664 23.3333C21.693 23.3333 19.7464 23.8133 19.6797 24.7733C20.3464 25.72 21.4397 26.3333 22.6664 26.3333C23.893 26.3333 24.9864 25.72 25.653 24.7733C25.5864 23.8133 23.6397 23.3333 22.6664 23.3333Z" fill="#F8F8F8"/>
<path fill-rule="evenodd" clip-rule="evenodd" d="M24 14.7867V8.36L14 4L4 8.36V14.9067C4 20.96 8.26667 26.6267 14 28C14.7333 27.8267 15.44 27.5733 16.1333 27.2667C16.8682 28.3175 17.8459 29.1753 18.9834 29.7673C20.1208 30.3592 21.3844 30.6678 22.6667 30.6667C27.08 30.6667 30.6667 27.08 30.6667 22.6667C30.6667 18.7067 27.7867 15.4267 24 14.7867ZM14.6667 22.6667C14.6667 23.4133 14.7733 24.1467 14.9733 24.8267C14.6533 24.9733 14.3333 25.12 14 25.2267C9.77333 23.8933 6.66667 19.5733 6.66667 14.9067V10.1067L14 6.90667L21.3333 10.1067V14.7867C17.5467 15.4267 14.6667 18.7067 14.6667 22.6667ZM22.6667 28C19.72 28 17.3333 25.6133 17.3333 22.6667C17.3333 19.72 19.72 17.3333 22.6667 17.3333C25.6133 17.3333 28 19.72 28 22.6667C28 25.6133 25.6133 28 22.6667 28Z" fill="#F8F8F8"/>
</svg>
