<svg width="22" height="30" viewBox="0 0 22 30" fill="none" xmlns="http://www.w3.org/2000/svg">
<path d="M5.66602 19H16.3327M8.33268 28.3334H13.666H8.33268ZM1.66602 11C1.66602 8.52467 2.64935 6.1507 4.39969 4.40036C6.15003 2.65002 8.524 1.66669 10.9994 1.66669C13.4747 1.66669 15.8487 2.65002 17.599 4.40036C19.3494 6.1507 20.3327 8.52467 20.3327 11C20.3336 12.5028 19.9701 13.9834 19.2735 15.3149C18.5768 16.6464 17.5677 17.7892 16.3327 18.6454L15.61 22.0667C15.5143 22.6973 15.1958 23.2728 14.7122 23.6886C14.2285 24.1045 13.6119 24.3332 12.974 24.3334H9.02468C8.38684 24.3332 7.77017 24.1045 7.28654 23.6886C6.80291 23.2728 6.48436 22.6973 6.38868 22.0667L5.66602 18.66C4.43056 17.8009 3.42145 16.6554 2.72489 15.3215C2.02833 13.9876 1.66502 12.5049 1.66602 11V11Z" stroke="#F8F8F8" stroke-width="2" stroke-linecap="round" stroke-linejoin="round"/>
</svg>
